<?xml version="1.0" encoding="utf-8"?>
<!-- Generator: Adobe Illustrator 22.1.0, SVG Export Plug-In . SVG Version: 6.00 Build 0)  -->
<svg version="1.1"
	 id="svg1923" inkscape:export-filename="D:\tmp\Mitsubaaoi.png" inkscape:export-xdpi="90" inkscape:export-ydpi="90" inkscape:version="0.47+devel r9492" sodipodi:docname="20101205093849!Mitsubaaoi.svg" sodipodi:version="0.32" xmlns:cc="http://creativecommons.org/ns#" xmlns:dc="http://purl.org/dc/elements/1.1/" xmlns:inkscape="http://www.inkscape.org/namespaces/inkscape" xmlns:rdf="http://www.w3.org/1999/02/22-rdf-syntax-ns#" xmlns:sodipodi="http://sodipodi.sourceforge.net/DTD/sodipodi-0.dtd" xmlns:svg="http://www.w3.org/2000/svg"
	 xmlns="http://www.w3.org/2000/svg" xmlns:xlink="http://www.w3.org/1999/xlink" x="0px" y="0px" viewBox="0 0 570 570"
	 style="enable-background:new 0 0 570 570;" xml:space="preserve">
<style type="text/css">
	.st0{fill:#1A1714;}
	.st1{fill:#1B1815;}
	.st2{fill:#1C1916;}
	.st3{fill:#1B1916;}
	.st4{fill:#23201E;}
	.st5{fill:#221F1C;}
	.st6{fill:#201E1B;}
	.st7{fill:#272421;}
	.st8{fill:#2C2927;}
</style>
<sodipodi:namedview  bordercolor="#666666" borderopacity="1.0" fit-margin-bottom="0" fit-margin-left="0" fit-margin-right="0" fit-margin-top="0" gridtolerance="10.0" guidetolerance="10.0" height="511px" id="base" inkscape:current-layer="svg1923" inkscape:cx="128" inkscape:cy="127.99239" inkscape:pageopacity="0.0" inkscape:pageshadow="2" inkscape:window-height="544" inkscape:window-maximized="1" inkscape:window-width="1024" inkscape:window-x="-4" inkscape:window-y="-4" inkscape:zoom="1.4336789" objecttolerance="10.0" pagecolor="#ffffff" showgrid="false" width="511px">
	</sodipodi:namedview>
<g>
	<path class="st0" d="M569,285.1c0,159.4-131.4,285.6-287,283.9C127.5,567.4-0.8,439.9,1,281.6C2.8,125.6,131.8-0.3,288.1,1
		C442.1,2.2,569,129.6,569,285.1z M285,530.1c134.7,0,244.9-110.2,245-245c0-134.9-109.7-244.9-244.7-245.2
		C150.5,39.6,39.7,150.4,40,285.2C40.3,420.2,150.3,530.1,285,530.1z"/>
	<path class="st1" d="M289.8,283.9c3.6-1.9,6.1-3.3,8.6-4.6c-1.5-3.5-5.3-3-7.6-5.1c0.1-0.3,0.1-0.8,0.3-0.9c7-3.7,10.4-9.4,13.2-17
		c4.4-12.2,14.4-18.9,27.7-19.9c6.8-0.5,13.6-0.8,20.4-0.1c3.6,0.4,5.3-0.3,6.5-4.2c1.8-6.1,5.7-11.2,12.2-14.7
		c0.3,4.1,0.6,7.6,1,12.6c5.1-6.3,4.9-15,13-16.8c1.5,1,0.8,2.4,0.7,3.6c-0.3,4.2,1.3,4.3,4.6,2.8c9.3-4.2,18.9-5.9,28.6-1.3
		c3.3,1.5,4.3-1.1,6-2.6c13.8-12.3,28.9-22.9,45.5-31.1c3.5-1.7,7.1-3.5,11.2-3.7c3.9-0.2,7.3,0.8,8.4,4.8c1.3,4.3-1.9,6.3-5.4,7.7
		c-15,6.2-28.3,15-39.8,26.3c-2,2-3.9,4.2-5.6,6.4c-1,1.3-2.4,3.2-0.7,4.6c1.9,1.5,3.2-0.4,4.3-1.7c10.4-12.4,24.2-20.1,38.3-27.4
		c2.1-1.1,4.4-2,6.7-2.7c4-1.2,7.6-0.6,9.3,3.7c1.6,4-0.8,6.5-4.1,8.5c-12.6,7.6-25.2,15.2-37.7,22.8c-0.9,0.6-1.9,1.1-2.7,1.9
		c-1.8,1.6-5.8,2.8-3.8,5.7c1.7,2.4,4.2-0.6,6.1-1.8c11.6-7.6,23.3-14.9,35.7-21.1c1.9-1,4.1-1.8,6.2-2.1c2.9-0.3,5.1,1.3,6.3,3.9
		c1.2,2.4,0.5,4.7-1.1,6.8c-2,2.5-5,3.5-7.8,4.7c-18.8,7.8-36.1,17.7-49.1,34.2c-8.2,10.5-17,20.8-26.5,30.2
		c-20.8,20.5-45.9,30.6-75.3,26.9c-16-2-28-11.9-37.7-24.4C301.3,293.4,297.1,287.8,289.8,283.9z M399.3,293c2,0,2.7,0.1,3.3,0
		c2.6-0.4,6.9,0.8,7-2.8c0.1-4.5-4.3-2.3-6.7-2.3c-9.4-0.1-18.3-1.3-26.1-7.1c-1.5-1.1-3-3.4-4.9-1c-1.9,2.5,0.4,4,2.1,5.3
		C382,290.9,391.2,292.4,399.3,293z M381.6,247.2c10.9-4.8,22.7-8.9,34.5-12.7c1.3-0.4,2.1-1.6,1.5-3.1c-0.7-1.8-2.3-1.9-3.9-1.4
		c-5.2,1.7-10.4,3.3-15.6,5.2c-5.9,2.2-11.8,4.6-17.7,7c-1.4,0.6-2.8,1.5-2.4,3.4C378.4,247.2,379.5,247.6,381.6,247.2z
		 M407.7,281.5c1.1-0.1,3.6,0,5.9-0.4c2.2-0.4,5.7,0,5.5-3.3c-0.3-3.8-3.7-2-5.8-1.8c-9.3,0.7-18.4,0.7-26.4-5.1
		c-1.6-1.2-3.3-2.9-4.9-0.4c-1.5,2.3,0.7,3.6,2.1,4.7C390.7,280.1,398.3,281.5,407.7,281.5z M326.5,257.1c-3.4,0-5.6,1.8-5.8,5
		c-0.3,3.5,1.9,5.9,5.5,5.9c3.4,0.1,5.4-2.2,5.5-5.3C331.8,259.5,329.9,257.4,326.5,257.1z M347.8,260.6c3.2-0.7,2-4.7,4.4-6
		c1.7-0.9,3.9-2.3,2.1-4.5c-1.9-2.3-4-0.4-5.7,0.9c-2.2,1.7-3.5,3.9-3.5,6.7C345.1,259.5,345.7,260.6,347.8,260.6z"/>
	<path class="st1" d="M185.7,213c8.4,2.1,8.3,10.4,12.5,16.2c2.2-3.9,1.1-7.7,2.1-12.1c5.8,3.8,10,8.4,11.7,14.6
		c1.2,4.2,3.2,5,6.9,4.4c7-1,14-0.5,21,0.2c14.3,1.3,23.5,9.6,28,22.5c1.9,5.5,3.4,10,9.2,12c1.3,0.5,2.3,1.9,3.4,3
		c-2.8,1.3-5.4,2.6-8.2,3.9c1.8,3.3,5.4,3.3,8,6c-9.7,5-14.2,15.2-21.8,22.7c-19.1,18.7-41.4,21.3-65.9,13.7
		c-17.1-5.4-32.2-13.8-44-27.7c-7.4-8.7-15.5-16.9-22.4-25.9c-13-16.8-30.4-26.9-49.5-34.8c-2-0.8-4.1-1.6-5.9-2.9
		c-3-2.3-5-5.2-2.7-9c2.2-3.6,5.5-4.2,9.2-2.7c2.8,1.2,5.6,2.6,8.2,4.1c10.8,5.9,21.3,12.3,31.5,19.1c1.5,1,3.6,3,5.1,0.9
		c1.5-2.1-1-3.6-2.5-4.6c-12.7-8.7-25.8-16.6-39.2-24.3c-1.3-0.8-2.7-1.5-4-2.3c-2.8-1.7-3.8-4.3-2.9-7.3c1-3.5,4-4.8,7.2-4.4
		c2.8,0.4,5.6,1.4,8.1,2.7c14.5,7.4,28.7,15.3,39.4,28.1c1,1.2,2.4,2.7,3.8,1.6c1.8-1.3,0.9-3.3-0.3-4.7c-2.4-2.9-4.8-5.8-7.5-8.3
		c-11.1-10.5-23.7-18.8-37.9-24.6c-3.5-1.4-6.7-3.3-5.6-7.6c1.1-4.4,4.9-5.2,8.9-4.9c3.8,0.3,7.2,1.9,10.5,3.6
		c16.7,8.2,31.9,18.6,45.5,31.2c2.8,2.6,4.9,3.2,8.5,1.7c7.9-3.3,15.9-1.9,23.7,1.1C185.3,221,185.3,221,185.7,213z M169.2,287.5
		c-1.1,0-2.2,0-3.3,0c-1.9,0-4.5-0.8-4.8,1.9c-0.4,3.2,2.7,2.9,4.7,3.2c4.6,0.7,9.2,0,13.7-0.7c6.6-1.1,12.8-3.1,18-7.4
		c1.5-1.2,3.4-2.7,1.5-4.9c-1.6-2-3.1-0.4-4.4,0.7C187.1,286.2,178.2,287.3,169.2,287.5z M193,245.1c-0.1-1.3-0.7-2.2-1.8-2.7
		c-11.1-5.2-22.7-9.1-34.4-12.7c-1.6-0.5-3.2,0-3.7,1.8c-0.4,1.5,0.8,2.5,2.1,2.9c11.5,3.5,22.8,7.6,33.9,12.4
		C190.8,247.7,192.5,247.4,193,245.1z M164.1,281.7c8.1-0.3,15.8-1.7,22.5-6.5c1.6-1.2,4.3-2.6,2.3-5.1c-1.7-2.2-3.5-0.3-5,0.9
		c-3.7,2.9-8.2,4.3-12.8,4.9c-5.2,0.7-10.5,0.6-15.7-0.3c-1.6-0.3-3.2-0.2-3.6,1.8c-0.4,2,1.1,2.7,2.7,3
		C157.6,280.9,160.9,281.3,164.1,281.7z M245.1,268c2.7-0.6,5.1-2.1,5.1-5.4c0-3.6-2.2-5.7-5.8-5.6c-3.2,0.1-5.2,2.1-5.1,5.5
		C239.5,265.9,241.6,267.5,245.1,268z M225.7,256.5c-0.2-3-2.1-5.2-4.9-6.8c-1.5-0.9-3.3-1.6-4.5,0.4c-1,1.7,0,2.8,1.5,3.7
		c1.8,1,2.8,2.6,3.2,4.6c0.3,1.5,1.3,2.3,2.8,2C225.8,260,226,258.5,225.7,256.5z"/>
	<path class="st2" d="M362.1,96.3c6.7,1.7,12.1,4.6,17.5,7.2c24.6,12.3,46.4,28.4,65.4,48.3c0.8,0.8,1.5,1.6,2.2,2.4
		c1.2,1.3,2.7,2.9,4.5,1.6c2.2-1.8,0.5-3.5-0.9-5c-8.5-9.2-17.7-17.7-27.5-25.5c-18.2-14.3-38-26-59.7-34.3c-3.2-1.2-5.6-2.9-7.4-6
		c-4.2-7.5-10.2-13.7-17.4-19.5c3-1.4,5.6-0.9,8.2-0.1c58,16.9,102.8,51.1,134.6,102.5c2.6,4.2,2.2,5.4-2.6,7
		c-19.6,6.3-37.7,4.1-54.2-8.4c-6-4.5-11.6-9.4-17.4-14.1c-4.7-3.7-9.6-7.1-15.7-7.7c-2.7-0.3-4.2-2.2-6-3.7
		c-6-5.1-12.5-9.8-17.9-15.5c-6-6.3-0.5-15.2-3.7-22.5C362.9,101.2,362.7,99,362.1,96.3z"/>
	<path class="st2" d="M232,65.4c-8.1,7.2-14.4,14-19,22.4c-1.1,2.1-3.7,2.3-5.7,3.1c-32.6,12.8-60.7,32.2-84.9,57.4
		c-0.6,0.6-1.2,1.3-1.8,1.9c-1.3,1.6-3.8,3.3-1.3,5.4c2,1.6,3.5-0.6,4.8-2c9-9.6,18.7-18.5,29.2-26.5c15-11.5,31.2-21.2,48.7-28.6
		c1.9-0.8,3.7-2.4,6.6-1.7c-2,8.3-3.7,16.6-2.6,25.2c0.3,2.1-1.8,2.8-3.1,3.9c-6.2,5.3-12.3,10.6-18.5,15.8c-1,0.8-2,2.2-3.1,2.3
		c-11.6,1.3-19,9.5-27.3,16.2c-9.4,7.7-19.2,14.6-31.5,17c-12.4,2.4-23.9-0.1-35.4-4.3C106.8,126.9,193.5,61.7,232,65.4z"/>
	<path class="st3" d="M489.4,386.4c-2.2-17.3-7.9-33-19.1-46.3c-2.4-2.8-0.1-4.4,1-6.3c12.3-20.6,22.9-41.9,30.4-64.7
		c0.9-2.7,4.8-7.6-0.2-9c-4.3-1.2-3.4,4.6-4.3,7.4c-7.5,22.1-17.9,42.8-29.6,62.9c-1.9,3.2-3.4,4-6.3,1.2c-4.1-4.1-12.6-4.7-13.6-10
		c-0.9-4.8,3.5-10.5,5.7-15.8c4.9-11.8,6-24.2,5.3-36.8c-0.2-4.2,1.4-6.7,4.6-9.3c11.7-9.3,24.7-15.7,38.6-20.8
		c6.1-2.3,7.2-0.3,8.2,5c5.7,31.1,5,62-2.1,92.8C503.9,354,498,370.6,489.4,386.4z"/>
	<path class="st2" d="M81.2,386.6c-8.1-15.2-13.6-30.8-17.5-47c-7.7-31.5-8.8-63.3-2.8-95.3c1.4-7.8,1.5-7.6,9-5.1
		c14.1,4.7,26.9,11.7,38.5,21c2.6,2.1,4,4.2,3.7,7.7c-1.3,17.5,2.8,34,10.3,49.7c1.7,3.6,1.7,6-2.5,7.5c-1.6,0.6-3.1,1.7-4.6,2.6
		c-10.1,6.2-10.2,6.2-16-4.5c-10.5-19.2-20.4-38.8-26.6-60c-0.6-1.9-0.8-4.3-3.6-3.4c-2.7,0.9-1.6,3.1-1.1,5
		c2.8,11.1,7.4,21.5,12.2,31.9c6.1,13.1,12.5,26.1,20.3,38.3c1.2,1.9,1.6,3.1,0,5.1c-10.6,12.9-16.6,27.7-18.1,44.4
		C82.4,385,81.8,385.5,81.2,386.6z"/>
	<path class="st2" d="M137.9,459.2c11.6,0.4,22.1,1.6,32.5-1.1c2.5-0.7,5.5-0.7,7.6-2.1c8.4-5.5,13.7-1.6,19.8,4.6
		c15,14.9,31.5,28,51.2,36.3c2.6,1.1,6.9,4.6,8.4,0.2c1.3-3.7-4-3.6-6.5-4.7c-21.5-9.5-38.8-24.5-55.4-40.6
		c-1.8-1.8-2.1-2.9,0.4-4.4c7.6-4.7,13.9-10.7,18.2-18.6c1.2-2.2,2.4-2,4-0.8c9.4,6.9,19.2,13.2,26.3,22.7
		c13.9,18.4,25.8,38.1,37.8,57.8c4,6.5-1.6,4.5-4,4.5c-50.4-0.6-94.8-17.4-134-48.8C142.4,462.8,140.7,461.5,137.9,459.2z"/>
	<path class="st2" d="M286.3,512.7c21.5-31.4,34.9-66.7,69.4-85.9c5,9.7,12.5,16.9,22.3,22.6c-17.9,17.9-36.3,34.1-59.4,43.8
		c-1.2,0.5-2.5,0.9-3.7,1.4c-1.3,0.6-1.9,1.8-1.3,3.2c0.5,1.2,1.6,1.5,2.7,1.2c2.3-0.7,4.6-1.4,6.8-2.3
		c21.3-9.4,38.6-24.2,54.9-40.3c3.3-3.3,5.7-4,10.1-2.1c13.6,6,27.9,7.1,42.8,5.6C390,495.5,342.7,513.5,286.3,512.7z"/>
	<path class="st0" d="M415.3,452.6c-19.5-0.9-37.8-8-50.9-26c-4.7-6.5-4.9-12.9-1.1-19.7c6.5-11.6,15.8-20.3,27.3-26.9
		c3-1.7,5.3-1.7,8.2,0.6c19.9,15.5,39.9,30.9,59.9,46.2c2.8,2.1,2.6,3.3,0.7,6.1C449.2,448,434.2,452.2,415.3,452.6z"/>
	<path class="st0" d="M155.5,452.5c-18.9-0.5-33.8-4.6-43.9-19.5c-1.6-2.4-2.9-3.7,0.2-6.1c20.5-15.5,40.8-31.2,61.1-47
		c2.3-1.8,4.2-1.7,6.5-0.4c12.4,6.9,22.4,16.1,28.9,28.8c3.1,6,2.7,11.6-1.3,17.3C194,444.4,175.3,451.5,155.5,452.5z"/>
	<path class="st0" d="M481.3,393.9c1.5,9.3-5.7,18.1-12.4,27.1c-1.5,2.1-2.8,2.2-4.8,0.6c-19.9-15.5-39.9-30.8-59.9-46.3
		c-1.3-1-3-1.7-1.6-4.1c4.9-7.9,8.2-16.8,18.2-20.7c6.6-2.5,11.6-7.9,15.1-14.2c2.6-4.8,6-5.6,10.9-4c6.5,2.1,11.7,6,16.1,11
		C475,356.8,480.7,372.8,481.3,393.9z"/>
	<path class="st0" d="M89.5,393.9c1-21.1,6.4-36.7,17.8-50.1c3.5-4,7.5-7.4,12.2-9.9c8.5-4.4,11.4-3.7,16.7,4.2
		c3.8,5.6,8.6,10.3,14.8,12.7c9.8,3.8,12.5,12.9,17.5,20.5c1.3,2-0.4,2.7-1.5,3.6c-20,15.4-40,30.8-59.9,46.2
		c-1.8,1.4-3.1,2.2-4.8-0.2C95.4,411.8,88,402.9,89.5,393.9z"/>
	<path class="st4" d="M283.1,147.7c0,26.8,0,53.5,0,80.3c0,1.8,0,3.5,0.2,5.3c0.1,1.2,0.9,2.1,2,2.2c1.6,0.2,2.3-1,2.4-2.5
		c0.1-1.7,0.1-3.5,0.1-5.3c0-26.7,0-53.5,0-80.7c0.6,0.8,1.2,1.2,1.4,1.7c5,23.1,13.9,45.2,17.4,68.7c2.4,16.1-3.7,28.2-17.2,35.1
		c-2.6,1.3-4.7,1.4-7.3,0.1c-13.1-6.5-19.5-18-17.9-32.9c1.6-15.1,6.6-29.4,10.6-44c2.5-9.4,5.1-18.9,7.6-28.3
		C282.5,147.5,282.8,147.6,283.1,147.7z"/>
	<path class="st2" d="M356.9,118c-16-10.3-32-18.9-49.9-23.1c-4.9-1.1-9.9-2-14.9-2.5c-3.4-0.3-4.5-1.6-4.4-4.9
		c0.2-8.8,0.1-17.6,0.1-26.3c0-2-0.1-3.8,2.9-4C326.6,54.7,359.6,87.4,356.9,118z"/>
	<path class="st2" d="M213.5,117.4c-0.1-15.3,5.4-27.9,15.4-38.5c13-13.9,28.8-21.9,48.4-21.8c4.4,0,6.3,0.7,6,5.6
		c-0.4,8.3-0.2,16.7-0.1,25c0,2.5-0.4,4.1-3.4,4.4c-23.9,2-44.6,12.1-64.4,24.9C215.1,117.2,214.7,117.1,213.5,117.4z"/>
	<path class="st5" d="M277.1,396.1c-1,6.5-2.1,13-3.1,19.4c-2.2,15-0.8,29.7,3.2,44.2c0.9,3.2,2.4,7-1.5,8.7
		c-3.9,1.7-6.5-1.5-8.4-4.6c-5.7-9-5.8-19.2-4.9-29.2c1.2-13.2,5.6-25.6,11.8-37.2C274.7,396.5,275.1,395.7,277.1,396.1z"/>
	<path class="st6" d="M294.1,396.1c2.2-0.4,2.5,1.2,3,2.3c8.2,15.8,13,32.5,11.3,50.5c-0.6,6.7-2.4,12.9-7.1,17.9
		c-1.7,1.8-4.1,3-6.5,1.6c-2.2-1.3-2.4-3.7-1.8-5.8c6.6-21.3,6.1-42.7,0.9-64.2C293.8,397.6,294.1,396.8,294.1,396.1z"/>
	<path class="st4" d="M267.6,308.7c2.1,23.7,0.3,45.7-17.5,63.3c-1.4,1.4-2.9,2.8-4.5,3.8c-3.4,2.1-5.4-1.1-7.3-2.7
		c-2.7-2.3,0.8-3.3,1.9-4.3c15.4-14,22.3-31.6,23.1-52.1C263.4,313.7,263.1,310.5,267.6,308.7z"/>
	<path class="st4" d="M303.3,309c4.3,1.3,4.4,4.3,4.4,7.1c0.4,21.3,7.7,39.4,23.9,53.6c1.3,1.1,3.2,2.4,0.6,4
		c-2.4,1.5-4.3,4.7-7.9,1.7c-7-5.9-12.5-12.8-16.1-21.3C302.2,339.6,302,324.6,303.3,309z"/>
	<path class="st6" d="M244.3,154.6c-0.2,2.5-0.4,5-3.2,5.9c-2.7,0.9-5-0.7-6.1-2.7c-6.3-10.6-10.9-21.8-11-34.4c0-1.5,0.5-3,1.1-4.4
		c1.4-3,2.9-6.8,6.6-6.4c4,0.4,3.2,4.8,3.2,7.5c0.2,9.2,2.7,17.6,6.8,25.7C243.1,148.7,244.3,151.4,244.3,154.6z"/>
	<path class="st6" d="M347.2,127.3c-1.6,10-5,20.1-10.3,29.5c-1.4,2.5-3.7,4.9-6.9,3.9c-3.7-1.1-3.5-4.6-3.3-7.7
		c0.2-2.9,1.7-5.4,2.9-7.9c3.8-7.7,6.2-15.8,6.3-24.5c0-2.9-0.7-7.1,3.1-7.8c3.7-0.7,5.2,3.3,6.7,6.1
		C347.1,121.3,347,124,347.2,127.3z"/>
	<path class="st6" d="M209.4,137.8c-0.1-3.6,0.7-8.2,4.2-12c1-1.1,2.1-2.5,3.8-1.8c1.4,0.5,1.4,2.1,1.3,3.4
		c-0.6,10.3,3.7,19.1,8.9,27.6c0.5,0.7,1,1.5,1.3,2.3c1.6,4.1,2.8,8.5-1.9,11c-4.5,2.4-7.5-1.2-9.6-4.5
		C212.6,156.3,209.3,148.3,209.4,137.8z"/>
	<path class="st6" d="M361.5,140.2c-0.1,8.6-3.2,16.3-7.7,23.4c-2.2,3.4-5.4,7.4-10.1,4.5c-4.4-2.7-3.2-7.2-1.2-11.2
		c2.2-4.5,4.8-8.9,6.9-13.4c2.2-4.6,2.9-9.6,2.8-14.7c0-1.7-0.3-4.1,1.5-4.7c2.1-0.7,3.5,1.4,4.7,2.9
		C361.2,131,361.6,135.6,361.5,140.2z"/>
	<path class="st5" d="M378.4,152.4c-1.2,9.6-6.7,17.8-14.6,24.5c-2.2,1.8-4.9,2.1-7.2,0c-2.4-2.2-3-5.4-0.8-7.7
		c7.9-8.2,10.7-18.2,12-29.1c0.4-3.7,2.4-3.7,4.9-1.4C376.3,142.1,378,146.5,378.4,152.4z"/>
	<path class="st4" d="M420.7,184c-0.1,14.4-12.4,25.5-27,24.3c-1.8-0.2-3.6-0.6-4.3-2.5c-0.8-2.1,0.7-3.5,2.3-4.2
		c13.2-5.5,20.6-15.1,21.3-29.6c0-0.8,0.6-1.9,1.2-2.2c1.4-0.5,2.5,0.6,3.3,1.6C420.4,175.1,420.7,179.5,420.7,184z"/>
	<path class="st6" d="M192.7,150.4c0.2-0.8,0.4-2.8,1.1-4.6c1.4-3.7,3.4-8.6,7.2-8.3c3.6,0.3,2.8,5.6,3.3,8.8
		c1.1,7.5,3.5,14.4,8.9,20c3,3.1,5,6.7,1.3,10.3c-4,3.8-7.2,0.5-10.1-2.2C197.8,168.2,192.6,157.8,192.7,150.4z"/>
	<path class="st6" d="M150.2,183.7c0-4.5,0.6-8.8,3.3-12.5c0.7-1,1.8-2.1,3.3-1.4c1.2,0.5,1.1,1.7,1.2,2.8
		c0.9,13.5,7.7,22.9,20.2,28.2c1.8,0.8,3.7,1.9,3.4,4.3c-0.3,2.5-2.5,2.8-4.5,2.9C162.1,208.9,150.2,198.2,150.2,183.7z"/>
	<path class="st5" d="M329.5,123.4c-0.5,7.7-3,16.3-6.6,24.6c-0.8,1.8-1.8,3.9-4.1,3.6c-2.4-0.3-2.7-2.6-3.2-4.5
		c-0.6-2.4-0.3-4.8,0.2-7.2c2.2-9.7,3-19.5,1.3-29.4c-0.3-2.1-0.9-4.9,1.3-6c2.2-1.1,4,1.1,5.6,2.5
		C328.3,111.2,329.7,116.3,329.5,123.4z"/>
	<path class="st5" d="M254.1,109.6c-2.7,10.5-0.7,21.6,1.4,32.6c0.2,1.3,0.1,2.6,0,3.9c-0.3,2.2-0.8,4.8-3.1,5.3
		c-2.5,0.5-3.7-1.9-4.5-4c-3.4-7.9-5.8-16.1-6.4-24.7c-0.5-6.7,1.3-12.6,6.8-17c1.2-1,2.6-2.1,4.1-1.5
		C254.3,105.1,254.1,107.2,254.1,109.6z"/>
	<path class="st5" d="M412.1,344.9c-3.4,6-7.9,6.8-13.3,6.6c-10.5-0.5-20.1-3.8-29.5-8.4c-2.7-1.3-3.7-2.7-1.8-5.5
		c1.3-2,2.1-4.4,3.4-6.4c1.6-2.3,3.5-3.1,5.9-0.8C386.6,339.6,397.8,345.2,412.1,344.9z"/>
	<path class="st6" d="M158.9,344.8c14,0.3,25.1-5.2,34.8-14c3.3-3,5.3-2,7,1.4c0.9,1.8,1.6,3.6,2.8,5.2c2,2.8,0.9,4.1-1.8,5.4
		c-9.3,4.7-18.9,7.8-29.4,8.4C166.7,351.6,162.3,350.6,158.9,344.8z"/>
	<path class="st5" d="M170.2,158.1c1.7,0.3,1.8,2,1.9,3.4c0.6,10.9,6.1,18.8,14.6,25.1c2.7,2,4.5,4.7,2.7,7.9
		c-2.1,3.8-5.4,1.8-8,0.5c-8.1-4-14.4-9.8-17.3-18.7c-1.8-5.6-0.9-10.8,2.2-15.6C167.2,159.4,168.2,158.2,170.2,158.1z"/>
	<path class="st4" d="M309.5,392c2.9-2.4,5-2.4,8-0.7c12.3,7.1,19.8,18.4,27.3,29.8c1.2,1.8,1.2,3.1-1,4.2c-2.2,1-4.3,2.3-6.2,3.8
		c-2.3,1.8-3.4,0.8-4.3-1.4c-1.7-4.1-3.3-8.1-5-12.1C324.3,406,317.5,398.6,309.5,392z"/>
	<path class="st6" d="M407.6,170.3c0.1,10.8-10.9,24.1-21.2,26.2c-2.2,0.4-4,0.2-5.1-1.9c-1.2-2.4-0.4-4.8,1.4-6.6
		c2.7-2.6,5.7-4.7,8.2-7.5c4.4-4.8,6.9-10.5,7.7-17c0.2-1.9-0.7-5,2.4-5.2c2.5-0.2,3.5,2.3,4.5,4.2
		C407,165.2,407.7,167.9,407.6,170.3z"/>
	<path class="st5" d="M261.6,391.9c-11.7,8.7-18.4,20-22.9,32.9c-0.8,2.2-1.3,7.6-5.7,3.5c-2.6-2.4-11.2-1.6-5.6-9.5
		c7.3-10.2,14.1-20.6,25.3-27.2C255.7,389.9,258.2,389.1,261.6,391.9z"/>
	<path class="st4" d="M199.1,195.3c11.3-0.3,27.7,18.4,26,29.3c-0.2,1.5-0.4,3.3-2.1,3.8c-2.1,0.7-3.3-1-4.1-2.5
		c-4.7-9.7-11.7-16.7-21.7-20.9c-2.5-1-4-3.5-3-6.5C195,195.9,197,195.1,199.1,195.3z"/>
	<path class="st4" d="M301.8,395.1c1.9-0.7,3.1-0.9,4.2,0.3c9.1,9.9,16.9,20.4,20.9,33.6c2.8,9.2-4.5,12.5-9.3,19.6
		C318,428,312.8,410.8,301.8,395.1z"/>
	<path class="st7" d="M259.3,204.7c0,0.7,0.1,1.4,0,2c-0.9,3.2,0.2,8.8-3.8,8.6c-3.5-0.1-1.9-5.4-2.1-8.5
		c-1.1-11.5-4.4-21.9-13.1-30c-2.5-2.4-5.1-5.3-2.1-8.4c2.9-3.1,6.2-0.9,8.7,1.3c4.5,3.8,7.2,8.7,9,14.3
		C258.1,190.7,258.8,197.6,259.3,204.7z"/>
	<path class="st4" d="M269.6,394c-10.8,15.9-16.8,33.3-16.2,53c-11.6-10.7-12.3-13.9-5.9-27.4c4.3-9.2,10.6-17,17.5-24.4
		C266,394,267,392.8,269.6,394z"/>
	<path class="st6" d="M369.5,195.5c4.7-0.2,6.9,0.7,7.4,3.5c0.6,3.3-1.4,5.5-4.2,6.7c-9.2,3.7-15.6,10.2-19.9,19
		c-0.2,0.4-0.5,0.7-0.7,1.1c-1,1.5-1.9,3.2-4,2.6c-2.1-0.6-2-2.8-2.1-4.4c-0.1-5.4,1.7-10.4,4.9-14.7
		C356.1,202.3,362.7,197.2,369.5,195.5z"/>
	<path class="st4" d="M271.9,105.1c-0.5,1.7-1,4-1.8,6.3c-2.5,7.1-3.4,14.5-2.9,22c0.2,3.1,0.2,6.2-1,9.1c-0.7,1.7-1.8,3.2-3.9,2.8
		c-1.8-0.3-2.4-1.8-2.6-3.4c-1.3-10.3-2.2-20.5-0.2-30.8c0.9-4.6,3.5-8,7.8-9.9C270.9,99.6,272.1,100.5,271.9,105.1z"/>
	<path class="st5" d="M248.1,211.1c-0.2,2.2-0.2,5.1-0.7,7.9c-0.3,1.9-1,4.5-3.3,4.3c-2.8-0.3-1.9-3.1-1.7-4.8
		c0.6-8-1.8-15.2-5.5-22c-2.3-4.3-5.5-7.9-9.4-10.8c-2.3-1.7-4.6-4.1-2.5-7.2c2.2-3.3,5.5-2.2,8.2-0.5c9.5,6,13,15.6,14.6,26.1
		C248,206.1,248,208.3,248.1,211.1z"/>
	<path class="st6" d="M178.8,162.7c0.2-1.8,0.1-3.4,0.6-4.8c1-2.8,1.9-6.9,5.1-6.8c2.8,0,2.1,4.1,2.7,6.5c1.9,7.2,5.9,13,11.4,18
		c2.8,2.5,6.2,5.4,3,9.4c-3.4,4.2-7.3,1.4-10.3-1C184.5,178.4,179.7,171.5,178.8,162.7z"/>
	<path class="st6" d="M322.9,210.5c0-7.3,1.4-14.4,4.7-21c2.5-5,5.9-9.3,11-11.9c2.6-1.3,5.7-2.1,7.6,1c1.7,2.8-0.1,5.1-2.2,6.8
		c-10.9,8.7-15.8,20-15.2,33.9c0.1,1.4,0.4,3.4-1.4,4c-2.3,0.7-2.8-1.5-3.4-3.1C322.6,217.1,323,213.7,322.9,210.5z"/>
	<path class="st5" d="M400.5,359.3c0.2,3.1-5.7,8.1-8.6,7.2c-10.4-2.9-20.3-6.9-29.5-12.7c-2.2-1.4-3.3-2.6-1.4-5.1
		c1.3-1.7,2-3.8,5-2.2c9.1,5,19.3,7.1,29.2,9.7C397.3,356.7,399.7,357.1,400.5,359.3z"/>
	<path class="st5" d="M210.9,350.3c0.3,2.1-1.2,2.6-2.2,3.2c-9.3,5.9-19.5,10-30.1,12.9c-5.3,1.4-6.2-3.6-7.5-6.4
		c-1.5-3.3,2.5-3.3,4.4-3.8c10.1-2.9,20.4-5,29.9-9.9C209.5,344.1,209.1,349.1,210.9,350.3z"/>
	<path class="st6" d="M392.1,163.5c-1.2,9.1-6.5,17-15.4,22.4c-2.4,1.5-5.5,2.1-7.6-1c-1.9-2.9-0.8-5.7,1.5-7.6
		c7.3-6.4,12.5-13.9,14-23.7c0.1-1,0.2-2.3,1.5-2.6c1.6-0.4,2.2,1,3,2C391.1,155.6,392,158.7,392.1,163.5z"/>
	<path class="st5" d="M356.9,184.8c2.1,0,4,0.5,4.6,2.8c0.7,3.1-1,5.1-3.4,6.4c-7.5,4.3-12.9,10.5-15.9,18.5
		c-1.4,3.6-1.9,7.6-2.9,11.4c-0.4,1.6-0.3,4.2-2.5,4c-2-0.2-1.9-2.6-2-4.3c-0.8-13.6,2.8-25.6,13.5-34.7
		C350.7,186.9,353.4,185,356.9,184.8z"/>
	<path class="st5" d="M311.7,205.6c0.3-9,1.4-16.4,4-23.5c1.7-4.6,4.2-8.7,7.9-12c2.7-2.4,6.1-4.8,9.2-1.6c2.9,3.1,0.2,6-2.3,8.4
		c-8.7,8.4-12.2,19-12.9,30.7c-0.1,1.8,0,3.5-0.2,5.3c-0.2,1.2-0.4,2.8-2,2.9c-1.5,0.1-2.3-1.4-2.5-2.7
		C312.3,210.2,311.9,207.2,311.7,205.6z"/>
	<path class="st5" d="M234.1,228.1c-3.2-1.9-2.5-5.3-3.1-8.2c-2.1-10.6-7.4-19-16.5-25c-1.4-0.9-2.9-2-4.1-3.2
		c-1.3-1.4-1.5-3.1-0.8-4.9c0.8-1.9,2.6-2.1,4.4-2.1c3,0,5.5,1.5,7.7,3.3c12,9.7,15.7,22.6,14.2,37.5
		C235.8,226.7,235.2,227.5,234.1,228.1z"/>
	<path class="st6" d="M312.8,125.2c-0.5,5.5-1,10.9-1.5,16.4c-0.2,1.8-0.6,3.6-2.8,3.8c-2.5,0.2-3.4-1.7-3.9-3.7
		c-0.4-1.7-0.8-3.5-0.7-5.2c0.9-10-0.8-19.6-4.2-29c-0.8-2.1-2-5.1,0.5-6.6c2.2-1.3,4.6,0.7,6.5,2.2c3.8,2.9,5.1,7.1,5.5,11.5
		c0.3,3.5,0.1,7,0.1,10.5C312.4,125.2,312.6,125.2,312.8,125.2z"/>
	<path class="st5" d="M352.9,417.2c-10.3-9.8-20.1-19.2-29.9-28.6c-0.8-0.7-2-1.5-0.7-2.5c1.1-0.9,2.4-2.2,4.1-1.1
		c1.8,1.2,3.5,2.6,5.4,3.8c4.3,2.6,8.6,5.3,13.1,7.5C357.6,402.2,357.7,402.1,352.9,417.2z"/>
	<path class="st6" d="M217.9,417.1c-1.3-4.6-2.1-8.6-3.6-12.4c-1.3-3.3,1.2-3.9,3-4.7c9.3-4,18.4-8.3,26.3-14.7
		c1.8-1.5,3.3-0.8,4.7,0.3c1.8,1.3,0.3,2.1-0.6,3C237.9,398,228.1,407.4,217.9,417.1z"/>
	<path class="st7" d="M314.5,318.3c3.5,1.1,5.4,2.5,5.9,5.9c2.3,14.6,8.8,26.9,20.2,36.5c1.8,1.5,3.4,2.6,0.9,5.1
		c-2.2,2.1-3.6,2.3-5.9,0.2C321.5,353.4,316,337,314.5,318.3z"/>
	<path class="st7" d="M276.1,335c2.4,6.8,0.4,12.8-0.7,18.6c-2.2,10.8-6.3,20.6-15.7,27.2c-1.6,1.1-3.2,2.9-5.3,1.9
		c-1.5-0.8-6.2-0.8-2.5-4.3c11.9-11.4,20.1-24.8,22.7-41.3C274.7,336.5,275.4,336,276.1,335z"/>
	<path class="st7" d="M256.5,318.1c-1.6,18.6-6.9,34.6-20.5,47.1c-2.5,2.3-4.2,3.2-6.9,0.2c-2.9-3.4,0.5-4.1,2-5.4
		c10.6-9.4,17-21.2,19.2-35.1C250.9,321.3,252.5,319.4,256.5,318.1z"/>
	<path class="st4" d="M143.5,335.5c12.7,0.3,22.9-3.3,31.1-11.9c3.4-3.6,6.3,0.1,8.6,1.3c3.2,1.7-0.2,3.8-1.3,5
		c-7.9,8.6-18,12-29.5,11.5C148.8,341.3,146.5,338.8,143.5,335.5z"/>
	<path class="st7" d="M294.9,336.5c2.4,0.6,1.9,2.8,2.2,4.3c2.7,14.3,10.1,26,20.3,36.1c1.1,1.1,4.2,2.2,2.3,4.4
		c-1.7,2-4.3,2.6-7.1,0.7c-4.8-3.3-8.8-7.3-11.5-12.4c-4.8-9.1-6.8-18.9-7.4-29.1C293.6,339.1,293.1,337.4,294.9,336.5z"/>
	<path class="st7" d="M427.1,335.5c-5.4,8-12.4,6.5-19.2,5.2c-7.3-1.4-13.5-4.9-18.6-10.3c-1.3-1.4-4.3-3.5-1.7-5.2
		c2.4-1.5,5.5-5.2,9.1-1.3C404.6,332.4,414.6,335.9,427.1,335.5z"/>
	<path class="st7" d="M141.6,331.6c-2.8,0.6-4.9-2-5.5-4.5c-0.8-3.5,3-2,4.7-2.6c5.6-2,11-4.4,15.4-8.6c2.7-2.6,8.3-1.9,10.3,1.1
		c1.3,1.9-0.5,2.9-1.4,3.8C159,327.1,151.4,330.6,141.6,331.6z"/>
	<path class="st7" d="M428.4,331.6c-8.5-0.7-15.3-4-21.1-9.2c-1.5-1.3-5-3.2-2.4-5.3c2.2-1.7,4.9-6.5,9.2-1.8c4.5,5,10.5,7.7,17,9.4
		c1.4,0.4,3.7,0,3.8,1.8c0.2,2-1.7,3.5-3.2,4.5C430.8,331.7,429.2,331.5,428.4,331.6z"/>
	<path class="st7" d="M390.6,371.3c-5.5,4.6-10.4,4.6-15.9,2.4c-6.9-2.8-13.6-5.8-19.7-10.2c-1.8-1.3-3-2.5-1-4.6
		c1.3-1.3,2-3.5,4.6-1.6C368.1,364.1,379.2,367.5,390.6,371.3z"/>
	<path class="st7" d="M179.8,371.5c11.8-4.2,23.1-7.6,32.9-14.4c2.7-1.9,3.3,0.9,4.5,2.1c1.8,1.8,0.5,2.9-1,4
		c-7.6,5.7-16.1,9.5-25.3,11.8C186.8,376.1,184,373.2,179.8,371.5z"/>
	<path class="st7" d="M324.8,325c3.7,0.1,5.9,1.5,7.3,4.2c4.3,8.3,10.2,15.3,17.3,21.2c2.4,2,2.6,3.3,0.6,5.7
		c-2.2,2.8-3.6,1.1-5.3-0.3C335.2,347.6,328,337.8,324.8,325z"/>
	<path class="st7" d="M246.4,324.4c-3.6,13.4-10.8,23.2-20.5,31.6c-2,1.7-3.3,2.2-5.2-0.3c-1.8-2.4-1.3-3.5,0.7-5.2
		c7.3-6.1,13.3-13.3,17.7-21.8C240.5,326,242.9,325.2,246.4,324.4z"/>
	<path class="st4" d="M262.5,190.2c0.7-10.1-2.9-18.4-9.7-25.4c-1.5-1.5-2.1-3.7-0.6-5.4c1.9-2.1,4.5-1.2,6.7-0.1
		c4.7,2.3,10,12.4,9.1,18c-0.7,4.4-2.2,8.7-3.4,13C263.9,190.2,263.2,190.2,262.5,190.2z"/>
	<path class="st7" d="M365.2,389.5c-1.7,5.2-4.7,5.4-8.8,3.5c-8.1-3.7-16.1-7.6-23.9-12.4c3.3-5,6.6-5.7,11.4-2.1
		C350.2,383.3,357.7,386,365.2,389.5z"/>
	<path class="st7" d="M238.5,380.4c-8.4,5.2-16.8,9.3-25.5,13c-3.2,1.4-5.1,0.5-6.4-2.2c-1.6-3.5,1.9-3,3.3-3.8
		c5.6-3,11.7-5.3,16.8-8.9C231.6,375.1,234.8,375.4,238.5,380.4z"/>
	<path class="st4" d="M374.8,380.1c-2.8,4.9-6.2,5.2-10.7,3.2c-6.2-2.8-12.4-5.5-18-9.5c-1.2-0.8-3.9-1.5-1.7-3.8
		c1.3-1.4,2.5-4.3,5.2-2.6C357.5,372.5,366.2,376.2,374.8,380.1z"/>
	<path class="st4" d="M306.8,189.5c-4.8-9.4-5-17.7,0.7-25.6c1.7-2.3,3.6-4.5,6.5-5.2c1.7-0.4,3.6-0.7,4.8,1c1,1.4,0.9,3.3-0.2,4.3
		C311.9,170.8,309.1,179.6,306.8,189.5z"/>
	<path class="st7" d="M195.8,380.2c8.8-4.2,17.3-7.7,25-12.7c3.3-2.1,4.3,0.9,5.7,2.5c2.1,2.3-0.8,2.9-1.9,3.7
		c-6.1,4.4-12.9,7.3-19.8,10.2C200.9,385.6,198.7,383.4,195.8,380.2z"/>
	<path class="st7" d="M154.6,309.6c-6.8,5.5-14.5,7.2-22.8,7.5c-2.3,0.1-3.9-0.7-4.1-3.1c-0.3-2.9,2.1-2.2,3.6-2.5
		c3.8-1,7.9-1.9,10.9-4.4C147.2,302.7,150.8,304.2,154.6,309.6z"/>
	<path class="st7" d="M416.5,309.8c3.4-5.4,7-7.1,12.5-2.5c3,2.5,7,3.5,10.9,4.3c1.6,0.3,3.8-0.1,3.4,2.7c-0.3,2.5-2,3.1-4.2,3
		C430.8,316.8,423,315.2,416.5,309.8z"/>
	<path class="st7" d="M288.4,116.9c8.8-1.4,8.9-1.4,9.7,6.9c0.4,3.9,0.7,7.8,1,11.7c0.1,1.5,0.2,3.4-1.6,3.8
		c-1.7,0.4-2.8-1.1-3.5-2.4C290.4,130.7,290.3,123.6,288.4,116.9z"/>
	<path class="st7" d="M272.3,128.8c0.2-2.4,0.6-4.8,0.5-7.2c-0.2-5.4,3-6.3,7.2-5.5c4.9,0.9,1.3,4.1,1.1,6.1
		c-0.5,4.5-1.3,9.1-3.4,13.3c-0.9,1.7-1.9,4.1-4.2,3.6c-2.5-0.6-1.7-3.2-1.7-5C271.8,132.3,272.1,130.6,272.3,128.8
		C272.3,128.8,272.3,128.8,272.3,128.8z"/>
	<path class="st8" d="M279.2,359.3c1.9,10.4-2.1,18.6-9.4,25.5c-2.7,2.6-2.8,2.5-7.9,0.6C271,378.7,276.2,369.7,279.2,359.3z"/>
	<path class="st8" d="M309.3,385.6c-2.5,1.5-4.1,2.3-6.2,1.1c-7.9-4.4-13.6-18-10.9-28.7C294.7,369.9,299.9,379,309.3,385.6z"/>
	<path class="st8" d="M338.5,330.3c3.2-0.7,5.4,0.1,7.5,2c3.3,2.9,6.5,5.9,10.2,8.3c3.1,2,2,3.6,0.6,5.8c-1.8,2.9-3.3,0.9-4.6-0.3
		C346.9,341.6,341.8,336.9,338.5,330.3z"/>
	<path class="st8" d="M233.1,329.3c-4.5,7.8-9.7,12.8-15.2,17.4c-0.9,0.8-2.2,1.9-3.2,0.2c-0.8-1.4-3.2-3.5-1.9-4.4
		C219.2,338.4,223.3,330.8,233.1,329.3z"/>
	<path class="st8" d="M428.2,299.3c2.3-5.2,5.5-7.2,10.5-3.3c0.7,0.5,1.7,0.6,2.3,1.1c2,1.7,7.5,0.3,5.6,5.2c-1.6,4.1-5.4,1.2-8,0.8
		C435,302.7,431.4,301.6,428.2,299.3z"/>
	<path class="st8" d="M121.2,274.2c3.1,3.6,6.2,7.2,9.2,10.8c0.9,1.1,2.7,2.2,1.1,3.8c-1.9,1.9-4.5,2.6-7.1,2.9
		c-2.2,0.3-2.5-1.4-2.7-2.9c-0.6-4.7-1.1-9.5-1.7-14.2C120.4,274.5,120.8,274.4,121.2,274.2z"/>
	<path class="st8" d="M450.9,274.8c-0.4,3.9-0.8,7.8-1.4,11.7c-0.3,1.9,0.7,4.9-2.6,5.2c-2.7,0.3-5.2-1-7.3-2.5
		c-1.5-1.1-0.6-2.2,0.3-3.3c3.2-3.8,6.5-7.7,9.7-11.5C450.1,274.6,450.5,274.7,450.9,274.8z"/>
	<path class="st8" d="M142.9,299.3c-5.1,2.5-9.6,3.9-14.5,4.6c-2.1,0.3-4,0.4-4.5-2.4c-0.5-2.5,1.2-2.8,3-3.4
		c1.9-0.6,3.9-1.2,5.4-2.3C137.6,291.7,140.4,294.6,142.9,299.3z"/>
	<path class="st7" d="M299.4,164.5c-1-3.2-1.8-5.7-2.5-8.2c-1-3.5,1.7-4.6,4-5.7c2-0.9,4.4-1.5,5.9,0.8c1.3,2.2,0.1,4.2-1.4,5.9
		C303.7,159.5,301.8,161.6,299.4,164.5z"/>
	<path class="st7" d="M271.4,164.3c-2.4-2.8-4-4.8-5.7-6.8c-1.6-1.9-3.2-4-1.5-6.4c1.5-2.1,3.8-1.6,5.9-0.6c2.4,1.2,4.8,2.5,3.8,5.8
		C273.2,158.8,272.4,161.2,271.4,164.3z"/>
	<path class="st8" d="M283.7,97.9c-1.6,5.4,2.3,10.1-2.7,12.9c-1.3,0.7-5.1,1.1-5.2-0.5C275.3,105.6,277.9,101.8,283.7,97.9z"/>
	<path class="st8" d="M295.6,110.8c-8.4,0.7-8.4,0.7-7.6-11.5C293.4,101.5,294.9,105.8,295.6,110.8z"/>
	<path class="st8" d="M364.4,331.7c-2.9,8.2-3.8,8.3-12.3,0C356.5,331.7,360.5,331.7,364.4,331.7z"/>
	<path class="st8" d="M206.6,331.4c4.2,0,7.8,0,12.5,0c-2.9,3.5-5.7,6.1-9.2,6.2C208,337.6,206.9,334.2,206.6,331.4z"/>
</g>
</svg>
