<?xml version="1.0" encoding="utf-8"?>
<!-- Generator: Adobe Illustrator 22.1.0, SVG Export Plug-In . SVG Version: 6.00 Build 0)  -->
<svg version="1.1"
	 id="svg1923" inkscape:export-filename="D:\tmp\Mitsubaaoi.png" inkscape:export-xdpi="90" inkscape:export-ydpi="90" inkscape:version="0.47+devel r9492" sodipodi:docname="20101205093849!Mitsubaaoi.svg" sodipodi:version="0.32" xmlns:cc="http://creativecommons.org/ns#" xmlns:dc="http://purl.org/dc/elements/1.1/" xmlns:inkscape="http://www.inkscape.org/namespaces/inkscape" xmlns:rdf="http://www.w3.org/1999/02/22-rdf-syntax-ns#" xmlns:sodipodi="http://sodipodi.sourceforge.net/DTD/sodipodi-0.dtd" xmlns:svg="http://www.w3.org/2000/svg"
	 xmlns="http://www.w3.org/2000/svg" xmlns:xlink="http://www.w3.org/1999/xlink" x="0px" y="0px" viewBox="0 0 570 570"
	 style="enable-background:new 0 0 570 570;" xml:space="preserve">
<style type="text/css">
	.st0{fill:#FFFFFF;}
</style>
<sodipodi:namedview  bordercolor="#666666" borderopacity="1.0" fit-margin-bottom="0" fit-margin-left="0" fit-margin-right="0" fit-margin-top="0" gridtolerance="10.0" guidetolerance="10.0" height="511px" id="base" inkscape:current-layer="svg1923" inkscape:cx="128" inkscape:cy="127.99239" inkscape:pageopacity="0.0" inkscape:pageshadow="2" inkscape:window-height="544" inkscape:window-maximized="1" inkscape:window-width="1024" inkscape:window-x="-4" inkscape:window-y="-4" inkscape:zoom="1.4336789" objecttolerance="10.0" pagecolor="#ffffff" showgrid="false" width="511px">
	</sodipodi:namedview>
<g id="g3940" transform="matrix(2.3991696,0,0,2.3991696,-90.616742,-59.116977)">
	<path id="path2634" class="st0" d="M155.9,115c-1.6-0.2-3.2-1.1-4.2-2.4c-0.5-0.7-1-1.7-1.1-2.6c0-0.2-0.1-0.3-0.1-0.3
		c0,0-0.2,0-0.4,0.1c-0.5,0.1-1.5,0.1-1.9,0c-1.4-0.2-2.6-0.9-3.6-2c-1.1-1.2-1.6-2.2-1.8-3.7c-0.1-1.4,0.3-2.8,1.1-4
		c0.1-0.2,0.3-0.4,0.4-0.5c0.1-0.1,2.1-1.5,4.5-3.1l4.4-3l0.3,0.3c0.7,0.7,1.5,1.1,2.6,1.3l0.2,0v4.6v1.4l0.1,0.1
		c0.1,0.2,0.4,0.2,0.6,0l0.1-0.1v-1.4v-4.6l0.2,0c1.1-0.2,1.9-0.6,2.6-1.3l0.3-0.3l4.4,3c2.4,1.6,4.4,3,4.5,3.1
		c0.2,0.2,0.7,0.8,0.9,1.3c0.7,1.4,0.8,3,0.3,4.4c-0.3,0.9-0.7,1.6-1.6,2.5c-1,1.1-2.1,1.7-3.6,1.9c-0.4,0.1-1.4,0.1-1.9,0
		c-0.2,0-0.4-0.1-0.4-0.1c0,0,0,0.2-0.1,0.3c-0.2,1.2-0.8,2.4-1.7,3.3c-0.9,0.9-2.1,1.5-3.3,1.7C157.1,115.1,156.4,115.1,155.9,115
		L155.9,115z M136.8,101.2c-1.8-0.2-3.3-0.8-4.7-1.8c-1.2-0.9-2.2-2.1-2.8-3.4l-0.3-0.5l-0.2,0c-0.1,0-0.5,0-0.8,0.1
		c-1,0-1.8-0.1-2.6-0.5c-1.6-0.7-2.8-2.1-3.2-3.8l-0.1-0.4l0.1-0.3c0.5-1.9,1.8-3.4,3.6-4.1c0.7-0.3,1.2-0.4,2-0.4
		c0.4,0,0.8,0,0.9,0l0.3,0l0.3-0.5c0.9-1.9,2.4-3.4,4.4-4.3c1.3-0.6,2.5-0.9,4-0.9c1.5,0,2.8,0.3,4.1,1c0.3,0.2,2.3,1.5,5.7,3.8
		c2.9,2,5.2,3.6,5.2,3.6c0,0,0,0.1-0.1,0.3c-0.2,0.4-0.3,0.7-0.3,1.1l-0.1,0.3l-4.6,0l-4.6,0l-0.1,0.1c-0.2,0.2-0.2,0.5,0.1,0.7
		c0.1,0,1.3,0.1,4.7,0.1h4.6l0.1,0.3c0.1,0.4,0.2,0.7,0.3,1.1c0.1,0.1,0.1,0.3,0.1,0.3c0,0-2.4,1.6-5.2,3.6
		c-3.4,2.3-5.4,3.6-5.7,3.8c-0.9,0.5-2,0.8-3,0.9C138.3,101.2,137.1,101.2,136.8,101.2L136.8,101.2z M174.4,101.1
		c-1.2-0.2-2.9-0.8-3.7-1.3c-0.1-0.1-2.4-1.7-5.2-3.5c-2.7-1.9-5-3.4-5-3.4c-0.1-0.1,0-0.1,0-0.2c0.1-0.3,0.3-0.8,0.4-1.1l0.1-0.3
		l4.7,0l4.7,0l0.1-0.1c0.1-0.1,0.1-0.4,0-0.5c0,0-0.1-0.1-0.2-0.1c-0.1,0-1.5-0.1-4.7-0.1H161l-0.1-0.3c-0.1-0.4-0.2-0.8-0.4-1.1
		c-0.1-0.2-0.1-0.2,0-0.2c0,0,2.3-1.6,5-3.4c2.7-1.9,5-3.4,5.2-3.5c0.3-0.2,1.1-0.6,1.6-0.8c0.9-0.3,2.3-0.6,3.2-0.6
		c1.4,0,2.9,0.3,4.1,1c1.9,0.9,3.4,2.4,4.3,4.3l0.3,0.5l0.3,0c0.5-0.1,1.5,0,1.9,0c1.2,0.3,2.3,0.8,3.1,1.7c0.7,0.8,1.2,1.6,1.5,2.7
		l0.1,0.3l-0.1,0.4c-0.6,2.2-2.4,3.9-4.7,4.3c-0.5,0.1-1.4,0.1-1.9,0l-0.2,0l-0.3,0.5c-1.5,3.2-4.8,5.3-8.4,5.2
		C175.2,101.2,174.6,101.1,174.4,101.1L174.4,101.1z M155.8,94.2c-1.3-0.3-2.3-1.3-2.7-2.6c-0.2-0.5-0.2-1.3,0-1.8
		c0.2-0.6,0.4-1.1,0.9-1.5c0.7-0.7,1.4-1,2.3-1.1c0.7,0,1.1,0.1,1.7,0.4c1.4,0.7,2.2,2.2,2,3.6c-0.3,1.8-1.8,3.1-3.6,3.1
		C156.3,94.2,156,94.2,155.8,94.2L155.8,94.2z M148.8,84.8c-4.2-2.8-4.4-3-4.7-3.3c-1.6-2-1.7-4.8-0.3-6.9c0.4-0.6,1.4-1.6,1.9-1.9
		c0.8-0.5,1.6-0.8,2.4-1c0.7-0.1,1.7-0.1,2.3,0l0.1,0l0.1-0.4c0.1-0.8,0.5-1.8,1-2.5c0.9-1.3,2.4-2.3,4-2.5c0.4-0.1,1.5-0.1,1.9,0
		c0.8,0.1,1.8,0.5,2.5,1c0.5,0.3,1.2,1,1.5,1.5c0.5,0.7,0.9,1.7,1,2.5l0.1,0.4l0.1,0c0.7-0.1,1.7-0.2,2.3,0c1.1,0.2,2.2,0.7,3.1,1.5
		c1.5,1.4,2.2,2.7,2.2,4.5c0.1,1.5-0.5,2.9-1.5,4.1c-0.1,0.1-2.1,1.5-4.5,3.1l-4.4,3l-0.3-0.3c-0.7-0.7-1.5-1.1-2.6-1.3l-0.2,0v-4.6
		c0-0.7,0-1.3,0-1.7l-0.1-0.1c-0.1-0.2-0.4-0.2-0.6,0l-0.1,0.1v1.7v4.6l-0.2,0c-1.1,0.2-1.9,0.6-2.6,1.3l-0.3,0.3L148.8,84.8
		L148.8,84.8z"/>
	<path id="path3080" class="st0" d="M156.6,24.6l-57.2,33v66.1l57.2,33l57.2-33V57.7L156.6,24.6z M156.6,41.8L199,66.2v48.9
		l-42.4,24.5l-42.4-24.5V66.2L156.6,41.8z"/>
	<path id="path3084" class="st0" d="M156.6,44.8l-39.7,22.9v45.9l39.7,22.9l39.7-22.9V67.8L156.6,44.8z M156.6,47.9l37.1,21.4v42.8
		l-37.1,21.4l-37.1-21.4V69.3L156.6,47.9z"/>
	<path id="path3024" class="st0" d="M95,220.5c-1.6-0.2-3.2-1.1-4.2-2.4c-0.5-0.7-1-1.7-1.1-2.6c0-0.2-0.1-0.3-0.1-0.3
		c0,0-0.2,0-0.4,0.1c-0.5,0.1-1.5,0.1-1.9,0c-1.4-0.2-2.6-0.9-3.6-2c-1.1-1.2-1.6-2.2-1.8-3.7c-0.1-1.4,0.3-2.8,1.1-4
		c0.1-0.2,0.3-0.4,0.4-0.5c0.1-0.1,2.1-1.5,4.5-3.1l4.4-3l0.3,0.3c0.7,0.7,1.5,1.1,2.6,1.3l0.2,0v4.6v1.4l0.1,0.1
		c0.1,0.2,0.4,0.2,0.6,0l0.1-0.1v-1.4v-4.6l0.2,0c1.1-0.2,1.9-0.6,2.6-1.3l0.3-0.3l4.4,3c2.4,1.6,4.4,3,4.5,3.1
		c0.2,0.2,0.7,0.8,0.9,1.3c0.7,1.4,0.8,3,0.3,4.4c-0.3,0.9-0.7,1.6-1.6,2.5c-1,1.1-2.1,1.7-3.6,1.9c-0.4,0.1-1.4,0.1-1.9,0
		c-0.2,0-0.4-0.1-0.4-0.1c0,0,0,0.2-0.1,0.3c-0.2,1.2-0.8,2.4-1.7,3.3c-0.9,0.9-2.1,1.5-3.3,1.7C96.2,220.5,95.4,220.5,95,220.5
		L95,220.5z M75.8,206.6c-1.8-0.2-3.3-0.8-4.7-1.8c-1.2-0.9-2.2-2.1-2.8-3.4l-0.3-0.5l-0.2,0c-0.1,0-0.5,0-0.8,0.1
		c-1,0-1.8-0.1-2.6-0.5c-1.6-0.7-2.8-2.1-3.2-3.8l-0.1-0.4l0.1-0.3c0.5-1.9,1.8-3.4,3.6-4.1c0.7-0.3,1.2-0.4,2-0.4
		c0.4,0,0.8,0,0.9,0l0.3,0l0.3-0.5c0.9-1.9,2.4-3.4,4.4-4.3c1.3-0.6,2.5-0.9,4-0.9c1.5,0,2.8,0.3,4.1,1c0.3,0.2,2.3,1.5,5.7,3.8
		c2.9,2,5.2,3.6,5.2,3.6c0,0,0,0.1-0.1,0.3c-0.2,0.4-0.3,0.7-0.3,1.1l-0.1,0.3l-4.6,0l-4.6,0l-0.1,0.1c-0.2,0.2-0.2,0.5,0.1,0.7
		c0.1,0,1.3,0.1,4.7,0.1h4.6l0.1,0.3c0.1,0.4,0.2,0.7,0.3,1.1c0.1,0.1,0.1,0.3,0.1,0.3c0,0-2.4,1.6-5.2,3.6
		c-3.4,2.3-5.4,3.6-5.7,3.8c-0.9,0.5-2,0.8-3,0.9C77.4,206.6,76.2,206.7,75.8,206.6L75.8,206.6z M113.4,206.6
		c-1.2-0.2-2.9-0.8-3.7-1.3c-0.1-0.1-2.4-1.7-5.2-3.5c-2.7-1.9-5-3.4-5-3.4c-0.1-0.1,0-0.1,0-0.2c0.1-0.3,0.3-0.8,0.4-1.1l0.1-0.3
		l4.7,0l4.7,0l0.1-0.1c0.1-0.1,0.1-0.4,0-0.5c0,0-0.1-0.1-0.2-0.1c-0.1,0-1.5-0.1-4.7-0.1h-4.6l-0.1-0.3c-0.1-0.4-0.2-0.8-0.4-1.1
		c-0.1-0.2-0.1-0.2,0-0.2c0,0,2.3-1.6,5-3.4c2.7-1.9,5-3.4,5.2-3.5c0.3-0.2,1.1-0.6,1.6-0.8c0.9-0.3,2.3-0.6,3.2-0.6
		c1.4,0,2.9,0.3,4.1,1c1.9,0.9,3.4,2.4,4.3,4.3l0.3,0.5l0.3,0c0.5-0.1,1.5,0,1.9,0c1.2,0.3,2.3,0.8,3.1,1.7c0.7,0.8,1.2,1.6,1.5,2.7
		l0.1,0.3l-0.1,0.4c-0.6,2.2-2.4,3.9-4.7,4.3c-0.5,0.1-1.4,0.1-1.9,0l-0.2,0l-0.3,0.5c-1.5,3.2-4.8,5.3-8.4,5.2
		C114.2,206.6,113.7,206.6,113.4,206.6L113.4,206.6z M94.9,199.6c-1.3-0.3-2.3-1.3-2.7-2.6c-0.2-0.5-0.2-1.3,0-1.8
		c0.2-0.6,0.4-1.1,0.9-1.5c0.7-0.7,1.4-1,2.3-1.1c0.7,0,1.1,0.1,1.7,0.4c1.4,0.7,2.2,2.2,2,3.6c-0.3,1.8-1.8,3.1-3.6,3.1
		C95.4,199.7,95.1,199.7,94.9,199.6L94.9,199.6z M87.9,190.3c-4.2-2.8-4.4-3-4.7-3.3c-1.6-2-1.7-4.8-0.3-6.9
		c0.4-0.6,1.4-1.6,1.9-1.9c0.8-0.5,1.6-0.8,2.4-1c0.7-0.1,1.7-0.1,2.3,0l0.1,0l0.1-0.4c0.1-0.8,0.5-1.8,1-2.5c0.9-1.3,2.4-2.3,4-2.5
		c0.4-0.1,1.5-0.1,1.9,0c0.8,0.1,1.8,0.5,2.5,1c0.5,0.3,1.2,1,1.5,1.5c0.5,0.7,0.9,1.7,1,2.5l0.1,0.4l0.1,0c0.7-0.1,1.7-0.2,2.3,0
		c1.1,0.2,2.2,0.7,3.1,1.5c1.5,1.4,2.2,2.7,2.2,4.5c0.1,1.5-0.5,2.9-1.5,4.1c-0.1,0.1-2.1,1.5-4.5,3.1l-4.4,3l-0.3-0.3
		c-0.7-0.7-1.5-1.1-2.6-1.3l-0.2,0v-4.6c0-0.7,0-1.3,0-1.7l-0.1-0.1c-0.1-0.2-0.4-0.2-0.6,0l-0.1,0.1v1.7v4.6l-0.2,0
		c-1.1,0.2-1.9,0.6-2.6,1.3l-0.3,0.3L87.9,190.3L87.9,190.3z"/>
	<path id="path3026" class="st0" d="M95.7,130.1l-57.2,33v66.1l57.2,33l57.2-33v-66.1L95.7,130.1z M95.7,147.2l42.4,24.5v48.9
		l-42.4,24.5l-42.4-24.5v-48.9L95.7,147.2z"/>
	<path id="path3028" class="st0" d="M95.7,150.3L56,173.2v45.9L95.7,242l39.7-22.9v-45.9L95.7,150.3z M95.7,153.3l37.1,21.4v42.8
		L95.7,239l-37.1-21.4v-42.8L95.7,153.3z"/>
	<path id="path3032" class="st0" d="M216.8,220.5c-1.6-0.2-3.2-1.1-4.2-2.4c-0.5-0.7-1-1.7-1.1-2.6c0-0.2-0.1-0.3-0.1-0.3
		c0,0-0.2,0-0.4,0.1c-0.5,0.1-1.5,0.1-1.9,0c-1.4-0.2-2.6-0.9-3.6-2c-1.1-1.2-1.6-2.2-1.8-3.7c-0.1-1.4,0.3-2.8,1.1-4
		c0.1-0.2,0.3-0.4,0.4-0.5s2.1-1.5,4.5-3.1l4.4-3l0.3,0.3c0.7,0.7,1.5,1.1,2.6,1.3l0.2,0v4.6v1.4l0.1,0.1c0.1,0.2,0.4,0.2,0.6,0
		l0.1-0.1v-1.4v-4.6l0.2,0c1.1-0.2,1.9-0.6,2.6-1.3l0.3-0.3l4.4,3c2.4,1.6,4.4,3,4.5,3.1c0.2,0.2,0.7,0.8,0.9,1.3
		c0.7,1.4,0.8,3,0.3,4.4c-0.3,0.9-0.7,1.6-1.6,2.5c-1,1.1-2.1,1.7-3.6,1.9c-0.4,0.1-1.4,0.1-1.9,0c-0.2,0-0.4-0.1-0.4-0.1
		c0,0,0,0.2-0.1,0.3c-0.2,1.2-0.8,2.4-1.7,3.3c-0.9,0.9-2.1,1.5-3.3,1.7C218,220.5,217.2,220.5,216.8,220.5L216.8,220.5z
		 M197.6,206.6c-1.8-0.2-3.3-0.8-4.7-1.8c-1.2-0.9-2.2-2.1-2.8-3.4l-0.3-0.5l-0.2,0c-0.1,0-0.5,0-0.8,0.1c-1,0-1.8-0.1-2.6-0.5
		c-1.6-0.7-2.8-2.1-3.2-3.8l-0.1-0.4l0.1-0.3c0.5-1.9,1.8-3.4,3.6-4.1c0.7-0.3,1.2-0.4,2-0.4c0.4,0,0.8,0,0.9,0l0.3,0l0.3-0.5
		c0.9-1.9,2.4-3.4,4.4-4.3c1.3-0.6,2.5-0.9,4-0.9c1.5,0,2.8,0.3,4.1,1c0.3,0.2,2.3,1.5,5.7,3.8c2.9,2,5.2,3.6,5.2,3.6
		c0,0,0,0.1-0.1,0.3c-0.2,0.4-0.3,0.7-0.3,1.1l-0.1,0.3l-4.6,0l-4.6,0l-0.1,0.1c-0.2,0.2-0.2,0.5,0.1,0.7c0.1,0,1.3,0.1,4.7,0.1h4.6
		l0.1,0.3c0.1,0.4,0.2,0.7,0.3,1.1c0.1,0.2,0.1,0.3,0.1,0.3c0,0-2.4,1.6-5.2,3.6c-3.4,2.3-5.4,3.6-5.7,3.8c-0.9,0.5-2,0.8-3,0.9
		C199.1,206.6,198,206.6,197.6,206.6L197.6,206.6z M235.2,206.5c-1.2-0.2-2.9-0.8-3.7-1.3c-0.1-0.1-2.4-1.7-5.2-3.5
		c-2.7-1.9-5-3.4-5-3.4c-0.1-0.1,0-0.1,0-0.2c0.1-0.3,0.3-0.8,0.4-1.1l0.1-0.3l4.7,0l4.7,0l0.1-0.1c0.1-0.1,0.1-0.4,0-0.5
		c0,0-0.1-0.1-0.2-0.1c-0.1,0-1.5-0.1-4.7-0.1h-4.6l-0.1-0.3c-0.1-0.4-0.2-0.8-0.4-1.1c-0.1-0.2-0.1-0.2,0-0.2c0,0,2.3-1.6,5-3.4
		s5-3.4,5.2-3.5c0.3-0.2,1.1-0.6,1.6-0.8c0.9-0.3,2.3-0.6,3.2-0.6c1.4,0,2.9,0.3,4.1,1c1.9,0.9,3.4,2.4,4.3,4.3l0.3,0.5l0.3,0
		c0.5-0.1,1.5,0,1.9,0c1.2,0.3,2.3,0.8,3.1,1.7c0.7,0.8,1.2,1.6,1.5,2.7l0.1,0.3l-0.1,0.4c-0.6,2.2-2.4,3.9-4.7,4.3
		c-0.5,0.1-1.4,0.1-1.9,0l-0.2,0l-0.3,0.5c-1.5,3.2-4.8,5.3-8.4,5.2C236,206.6,235.5,206.6,235.2,206.5L235.2,206.5z M216.7,199.6
		c-1.3-0.3-2.3-1.3-2.7-2.6c-0.2-0.5-0.2-1.3,0-1.8c0.2-0.6,0.4-1.1,0.9-1.5c0.7-0.7,1.4-1,2.3-1.1c0.7,0,1.1,0.1,1.7,0.4
		c1.4,0.7,2.2,2.2,2,3.6c-0.3,1.8-1.8,3.1-3.6,3.1C217.2,199.7,216.8,199.6,216.7,199.6L216.7,199.6z M209.6,190.3
		c-4.2-2.8-4.4-3-4.7-3.3c-1.6-2-1.7-4.8-0.3-6.9c0.4-0.6,1.4-1.6,1.9-1.9c0.8-0.5,1.6-0.8,2.4-1c0.7-0.1,1.7-0.1,2.3,0l0.1,0
		l0.1-0.4c0.1-0.8,0.5-1.8,1-2.5c0.9-1.3,2.4-2.3,4-2.5c0.4-0.1,1.5-0.1,1.9,0c0.8,0.1,1.8,0.5,2.5,1c0.5,0.3,1.2,1,1.5,1.5
		c0.5,0.7,0.9,1.7,1,2.5l0.1,0.4l0.1,0c0.7-0.1,1.7-0.2,2.3,0c1.1,0.2,2.2,0.7,3.1,1.5c1.5,1.4,2.2,2.7,2.2,4.5
		c0.1,1.5-0.5,2.9-1.5,4.1c-0.1,0.1-2.1,1.5-4.5,3.1l-4.4,3l-0.3-0.3c-0.7-0.7-1.5-1.1-2.6-1.3l-0.2,0v-4.6c0-0.7,0-1.3,0-1.7
		l-0.1-0.1c-0.1-0.2-0.4-0.2-0.6,0l-0.1,0.1v1.7v4.6l-0.2,0c-1.1,0.2-1.9,0.6-2.6,1.3l-0.3,0.3L209.6,190.3L209.6,190.3z"/>
	<path id="path3034" class="st0" d="M217.4,130.1l-57.2,33v66.1l57.2,33l57.2-33v-66.1L217.4,130.1z M217.4,147.2l42.4,24.5v48.9
		L217.4,245l-42.4-24.5v-48.9L217.4,147.2z"/>
	<path id="path3036" class="st0" d="M217.4,150.3l-39.7,22.9V219l39.7,22.9l39.7-22.9v-45.9L217.4,150.3z M217.4,153.3l37.1,21.4
		v42.8L217.4,239l-37.1-21.4v-42.8L217.4,153.3z"/>
</g>
</svg>
