<?xml version="1.0" encoding="utf-8"?>
<!-- Generator: Adobe Illustrator 22.1.0, SVG Export Plug-In . SVG Version: 6.00 Build 0)  -->
<svg version="1.1"
	 id="svg1923" inkscape:export-filename="D:\tmp\Mitsubaaoi.png" inkscape:export-xdpi="90" inkscape:export-ydpi="90" inkscape:version="0.47+devel r9492" sodipodi:docname="20101205093849!Mitsubaaoi.svg" sodipodi:version="0.32" xmlns:cc="http://creativecommons.org/ns#" xmlns:dc="http://purl.org/dc/elements/1.1/" xmlns:inkscape="http://www.inkscape.org/namespaces/inkscape" xmlns:rdf="http://www.w3.org/1999/02/22-rdf-syntax-ns#" xmlns:sodipodi="http://sodipodi.sourceforge.net/DTD/sodipodi-0.dtd" xmlns:svg="http://www.w3.org/2000/svg"
	 xmlns="http://www.w3.org/2000/svg" xmlns:xlink="http://www.w3.org/1999/xlink" x="0px" y="0px" viewBox="0 0 570 570"
	 style="enable-background:new 0 0 570 570;" xml:space="preserve">
<sodipodi:namedview  bordercolor="#666666" borderopacity="1.0" fit-margin-bottom="0" fit-margin-left="0" fit-margin-right="0" fit-margin-top="0" gridtolerance="10.0" guidetolerance="10.0" height="511px" id="base" inkscape:current-layer="svg1923" inkscape:cx="128" inkscape:cy="127.99239" inkscape:pageopacity="0.0" inkscape:pageshadow="2" inkscape:window-height="544" inkscape:window-maximized="1" inkscape:window-width="1024" inkscape:window-x="-4" inkscape:window-y="-4" inkscape:zoom="1.4336789" objecttolerance="10.0" pagecolor="#ffffff" showgrid="false" width="511px">
	</sodipodi:namedview>
<g>
	<path d="M297,3.8c4.5,0.4,8.9,0.9,13.4,1.3c28.5,2.5,56.3,8.5,82.3,20.4c27.2,12.5,37.8,45.7,23.7,72c-4.3,8.1-10.5,15.2-15.9,22.7
		c-2.7,3.8-5.4,7.5-8.6,11.7c-0.3-1.9-0.5-3.2-0.8-4.6c-2-9.3-7.4-16.1-15.9-20.4c-15.6-8-32.2-13.5-49.3-17
		c-13.7-2.9-27.5-4.5-41.4-4.3c-29.8,0.4-58.4,6.6-85.6,19.2c-8.6,4-15.6,9.2-19,18.2c-1,2.6-1.5,5.4-2.3,8.6
		c-3.5-4.8-7-9.4-10.3-14.1c-4.8-6.8-10.4-13.2-14.1-20.5c-10.1-20-7.7-39.3,5.8-57.2c6.9-9.1,16.5-14.4,27.1-18.2
		C204,15.2,222.3,10.1,241,7.3c9-1.4,18.2-1.9,27.3-2.8c1.5-0.2,3.1-0.4,4.6-0.6C281,3.8,289,3.8,297,3.8z"/>
	<path d="M570,297c-0.2,1.5-0.7,3-0.6,4.4c0.7,24.9-16.7,47.3-41.7,52.8c-8.6,1.9-17.3,1.9-25.9-0.9c-11.4-3.7-22.7-7.4-34.3-11.1
		c0.3-0.4,0.4-0.7,0.7-0.8c11.6-5,17.2-14.3,18.1-26.4c0.9-11.7,1.6-23.6,1.3-35.3c-0.7-24.6-6.3-48.1-15.9-70.7
		c-9.9-23.1-23.4-43.8-41-61.7c-7.1-7.2-14.4-11.2-29.5-8.9c1.6-2.2,2.9-4.2,4.4-6.1c6.2-8.6,12.1-17.5,18.8-25.7
		c7.3-8.9,17-14.4,28.3-16.6c22.7-4.4,40.9,3.3,55.1,21.3c21.9,27.6,38.1,58.2,48.8,91.7c6.6,20.8,10.9,42.1,12.3,64
		c0.2,3.9,0.4,7.8,0.7,11.7c0,0.6,0.4,1.3,0.6,1.9C570,286.1,570,291.5,570,297z"/>
	<path d="M0,273.6c0.2-0.7,0.6-1.3,0.6-2c1.1-21.5,4.9-42.6,11-63.3c10-33.6,25.7-64.4,46.7-92.4c7.6-10.2,16.2-19.1,28.4-23.7
		c21.9-8.4,47.1-1.2,61,17.6c6.9,9.4,13.7,18.9,20.8,28.6c-4.8,0-9.4-0.5-13.9,0.1c-8.9,1.3-14.8,7.6-20.5,13.9
		c-18.9,21.3-33.1,45.3-42.1,72.4c-6,18-9.3,36.5-10.1,55.5c-0.6,13.4,0,26.8,2.3,40c1.6,9.2,7,16.1,15.4,20.4
		c0.7,0.4,1.5,0.7,2.8,1.4c-1.7,0.6-2.9,1.1-4.1,1.5c-10.8,3.5-21.5,7.6-32.5,10.4c-18.4,4.6-34.8,0-48.8-12.8
		C8.2,332.9,3,322.7,1,310.8c-0.4-2.2-0.6-4.5-1-6.8C0,293.9,0,283.7,0,273.6z"/>
	<path d="M220.4,566.2c-7.4-2-14.8-3.9-22.1-6.2c-25.6-8.1-49.6-19.6-71.9-34.6c-20.5-13.8-39-29.8-55.3-48.3
		c-10.9-12.4-21.7-25.2-29-40.1c-9.5-19.3-7.2-38.3,5.5-55.6c6.4-8.8,15.1-14.8,25.7-18c9.7-2.9,19.2-6.2,28.8-9.3
		c1.1-0.4,2.3-0.6,4-1c-7.7,12.8-4.7,24.3,2.1,35.9c9.5,16.3,20.8,31.2,34.2,44.5c14.6,14.4,31,26.2,49.2,35.6
		c19.3,10,39.7,16.8,61.2,20.1c9.3,1.4,17.4-1.8,24.2-8.2c0.7-0.6,1.3-1.3,2.4-2.5c0,2,0,3.3,0,4.6c0,10.7,0.2,21.3-0.1,32
		c-0.5,19.6-10.2,33.9-26.4,43.9c-6,3.7-12.7,6.2-19.9,6.6c-0.4,0-0.7,0.4-1.1,0.6C228,566.2,224.2,566.2,220.4,566.2z"/>
	<path d="M338.2,566.2c-1.6-0.3-3.2-0.7-4.9-1c-22-4.2-39.1-22-42.5-44.2c-0.1-0.7-0.1-1.5-0.1-2.2c0-13.1,0-26.2,0-39.4
		c0.4,0.1,0.7,0.1,0.9,0.2c5.3,6.2,12.4,9.2,20.3,9.7c4.7,0.3,9.6-0.8,14.3-1.8c32.7-6.8,62.1-20.8,87.9-42.1
		c21-17.3,37.8-38.1,50.5-62.1c4.9-9.2,5.1-18.7,0.3-28.1c-0.3-0.6-0.5-1.1-1-2.3c5,1.6,9.6,3,14.1,4.4c6.7,2.2,13.4,4.2,20,6.6
		c16.6,5.9,27.5,17.5,32.7,34.2c5.3,17.2,1.9,32.8-8.2,47.6c-10.6,15.5-22.1,30-35.2,43.4c-12,12.3-25.3,23.2-39.4,33.1
		c-28,19.6-58.7,33.6-91.7,42.3c-2.2,0.6-4.4,1.1-6.6,1.6C345.8,566.2,342,566.2,338.2,566.2z"/>
	<path d="M310.3,263.3c8.4-11.5,16.6-23,24.9-34.4c5.9-8.1,11.9-16.1,17.6-24.3c4.3-6.2,10.5-9.1,17.5-10.1
		c15.8-2.3,27.1,3.9,35.5,18.9c1.4,2.5,2.8,3.5,5.8,3.4c14.4-0.6,26.4,8.2,30.7,22c3.9,12.8-1.3,26.8-13.2,34.2
		c-2.8,1.7-2.3,4-2,6.2c0.8,5.9,0.6,11.7-1.4,17.5c-4.2,12.3-16.5,21.4-29.5,21.6c-1.4,0-2.9-0.3-4.3-0.7c-23-7.4-46-14.9-69-22.3
		c-1.9-0.6-2.4-1.4-2.3-3.3c0.4-6.8,0.4-6.8,6.8-8.9c9-2.9,18-5.8,26.9-8.8c5.3-1.7,7.4-5,6.4-9.3c-1-4.2-4.6-6.8-8.8-5.6
		c-9.6,2.8-19.1,5.7-28.5,9.1c-5,1.8-8.9,2.5-11.4-3.2C311.7,264.7,311.1,264.2,310.3,263.3z"/>
	<path d="M259.3,263.2c-1.1,1.4-2.3,2.4-2.9,3.7c-1.7,3.4-3.7,3.7-7.3,2.4c-9.6-3.5-19.3-6.4-29.1-9.5c-4.6-1.4-8.1-0.5-10,2.3
		c-2.9,4.4-1.1,9.7,4,11.5c10.2,3.5,20.5,6.9,30.8,10c3,0.9,4.5,1.9,3.9,5.3c-0.3,1.7,0.2,3.5,0.3,5.5c-7,2.3-13.8,4.5-20.7,6.8
		c-16.2,5.2-32.5,10.3-48.6,15.8c-7,2.3-13.3,0.8-19.5-2.1c-11.7-5.5-20.3-18.1-17.6-35.4c0.5-3.5-0.2-5.3-3.3-7.3
		c-10.2-6.4-15.2-19.5-12.6-31.4c2.7-12.2,12.3-21.5,24.4-23.5c2.4-0.4,4.9-0.8,7.2-0.4c2.7,0.4,4-0.7,5.1-2.9
		c2.9-5.6,6.7-10.6,12-14.4c10.8-7.6,27-7.6,37.2,0.8c3.5,2.9,5.8,7.1,8.6,10.9C234.1,228.5,246.7,245.8,259.3,263.2z"/>
	<path d="M252.6,305.2c1.8,2.6,3.5,5.1,5.3,7.8c-4.3,5.9-8.7,12-13,18c-2.6,3.6-5.2,7.1-7.7,10.8c-3.1,4.4-2.8,8.8,0.9,11.5
		c3.6,2.7,8.2,1.7,11.5-2.8c6.3-8.6,12.5-17.2,18.8-25.8c0.7-0.9,1.4-1.8,2-2.7c3.1,0.9,6,1.7,9,2.6c0,2.8,0,5.5,0,8.3
		c0,20.7-0.3,41.4,0.1,62.1c0.2,9.8-3.9,17.2-11,23c-10,8.1-21.3,9.3-33.2,4.5c-0.2-0.1-0.4-0.2-0.6-0.3c-4.1-2.4-7.4-2.6-12,0.6
		c-17.8,12.6-42.6,2.3-46.8-19c-1.2-6.1-0.8-12.2,2-17.9c0.8-1.7,0.6-2.7-0.7-4.1c-5-5.1-9.3-10.6-11-17.7
		c-3.3-13.7,1.7-27.1,13.4-34.7c3.8-2.4,8.7-3.1,13.1-4.5C212.4,318.2,232.4,311.7,252.6,305.2z"/>
	<path d="M292.6,253.4c0-11,0-22.1,0-33.1c0-1.8-0.2-3.6-0.6-5.3c-0.8-3.8-3.6-5.8-7.6-5.7c-3.5,0.1-6,2.2-6.8,5.9
		c-0.2,1.1-0.3,2.3-0.3,3.5c0,10.4,0,20.9,0,31.3c0,1.1,0,2.3,0,3.5c-1.3,0.4-2.4,0.7-3.5,1.1c-5.7,1.7-5.7,1.8-9.3-3.1
		c-13.5-18.6-27.1-37.1-40.4-55.8c-3.4-4.8-3.8-10.8-2.9-16.4c2.5-15.2,11.3-24.7,26.5-27.9c0.5-0.1,1-0.4,1.5-0.5
		c3.6-0.3,5.3-2.1,6.5-5.8c4-13.4,16.1-21.8,29.8-21.4c13.5,0.3,25.1,9.6,28.6,23c0.6,2.1,1.5,3,3.6,3.6c5.4,1.6,11.1,3,15.8,5.8
		c12.7,7.6,17.9,23.2,13.1,37.2c-0.6,1.7-1.9,3.2-3,4.8c-13.7,18.8-27.4,37.6-41,56.5c-1.2,1.6-2.2,2.2-4.1,1.2
		C296.9,254.8,294.8,254.3,292.6,253.4z"/>
	<path d="M299.5,321.8c7,9.7,14,19.2,20.9,28.7c1.9,2.6,4.2,4.5,7.7,4c5.7-0.8,8.5-6.5,5.4-11.4c-3.2-5.2-7-10-10.6-15
		c-3.7-5.1-7.4-10.2-11.1-15.3c1.7-2.5,3.4-5,5.2-7.7c7.5,2.4,15.1,4.8,22.6,7.3c16.1,5.2,32.2,10.3,48.2,15.7
		c7.2,2.4,11.4,8.3,14.2,14.9c4.9,11.8,3.6,23.2-4.8,33.1c-3.8,4.5-5.9,8-3.8,14.7c4,12.6-2.4,26-13.3,32.7c-11.5,7-25.5,6-35.9-2.7
		c-1.5-1.2-2.6-1.6-4.4-0.8c-6.3,2.7-12.5,5.2-19.7,4.9c-12.8-0.4-25.5-9.7-29.1-22c-0.3-1-0.4-2.1-0.4-3.1c0-24.3,0-48.5-0.1-72.8
		c0-2.1,0.3-3.3,2.8-3.5C295.4,323.4,297.2,322.5,299.5,321.8z"/>
	<path d="M463,316.5c4.6-29.7,2-58.8-8-87.3c-9-25.8-23.1-48.2-42.3-67.5c-0.4,0.1-0.7,0.3-1.1,0.4c0,2.6,0.4,5.4-0.1,7.9
		c-1.1,6.2-6.6,10.8-12.5,11c-7.3,0.2-12.7-3.4-14.7-10c-2.7-8.7,0.5-17.7,8-22.3c7.1-4.4,16.8-3.9,22.3,1.5
		c5.4,5.3,10.8,10.7,15.7,16.5c19.6,23.3,32.8,49.9,39.7,79.5c5.3,22.8,6.1,45.9,3,69.1c-0.4,2.7-0.9,5.4-1.3,8.1
		c-1.6,9.6-11.1,16.3-21.5,15.3c-8.7-0.9-16.4-9.6-16.3-18.5c0.1-6,4.5-11.6,10.1-13c6.4-1.6,12.7,0.8,15.9,6.1
		c0.7,1.1,1.3,2.3,2,3.4C462.3,316.6,462.6,316.6,463,316.5z"/>
	<path d="M107.8,316.6c0.6-1,1.2-1.9,1.8-2.9c3.8-6.4,11.5-8.8,18.1-5.8c6.8,3.2,10,11,7.4,18.1c-3.2,8.7-11.3,13.7-20.6,12.8
		c-8.2-0.8-14.7-7.2-16.3-16c-4.8-25.5-4.2-51,1.5-76.2c6-26.2,17-50.4,33.4-71.8c6.5-8.4,13.9-16.1,21.2-23.8
		c6.3-6.6,17.3-6.8,24.8-0.9c7.1,5.6,9.3,16.7,4.9,24.3c-3.2,5.4-10,8.1-16.2,6.4c-5.8-1.6-10.1-7.2-10.1-13.4c0-1.7,0-3.3,0-5.7
		c-1.3,1-2.4,1.7-3.2,2.5c-27.4,29.2-43.7,63.6-48.7,103.3c-2.1,16.4-1.9,32.8,1,49.1C107.2,316.6,107.5,316.6,107.8,316.6z"/>
	<path d="M124.5,371.1c2,3.6,3.8,7.2,5.9,10.7c8.8,14.6,19.4,27.8,32,39.3c16.4,15.1,35,26.9,55.8,35c11.7,4.6,23.7,8.2,36.1,10.2
		c0.7,0.1,1.4-0.2,2.2-0.3c-0.3-0.6-0.5-1.3-1-1.8c-6-6-6.3-15.3-0.4-20.6c7.1-6.4,15.5-5.2,21.6,1.5c5.3,5.8,6.7,12.8,3.6,20.2
		c-3.2,7.3-8.9,11.8-16.9,11.7c-6.6-0.1-13.1-1.6-19.6-3c-15.3-3.2-29.9-8.5-43.9-15.5c-20.6-10.4-38.8-24-54.5-41
		c-12.9-14-23.3-29.5-31.6-46.6c-4.9-10-0.8-21.3,9.4-26c7.6-3.5,17.5-1.2,22.2,5.3c4,5.4,3.9,12.2-0.1,17.2
		c-4.3,5.4-11.1,7-17.3,4.1c-0.9-0.4-1.8-0.8-2.6-1.2C125,370.5,124.7,370.8,124.5,371.1z"/>
	<path d="M313.8,466.6c30.7-5.1,58.4-17.1,82.9-36.5c20.4-16.2,36.6-35.8,48.4-58.9c-0.2-0.3-0.3-0.5-0.5-0.8
		c-0.8,0.2-1.6,0.4-2.4,0.8c-7.1,3.4-15.5,1.1-18.9-5.4c-4-7.6-1.7-15.7,5.7-19.8c7.2-4.1,14.4-3.7,21.1,1
		c6.7,4.7,8.8,11.5,7.6,19.4c-0.2,1-0.6,2-1,3c-9.1,19.2-20.9,36.4-35.8,51.7c-19.8,20.3-42.9,35.4-69.4,45.5
		c-14,5.3-28.5,8.8-43.4,10.6c-7.7,0.9-16.2-4.8-18.9-12.5c-2.9-8.4,0.1-17.7,7.2-22.4c6.6-4.3,14.2-3.4,19.1,2.3
		c4.8,5.6,4.5,13.5-0.7,19.2c-0.6,0.6-1.1,1.3-1.6,2C313.4,466.1,313.6,466.3,313.8,466.6z"/>
	<path d="M366.4,127.9c-3.7-1.7-7.4-3.5-11.2-5.1c-23.5-10-48-14.8-73.5-14.3c-26.8,0.5-52.4,6.8-76.6,18.6c-0.6,0.3-0.9,1-1.8,1.9
		c1.3,0.4,2.1,0.7,3,0.9c7.4,1.4,12.4,7.7,11.9,14.8c-0.6,7.6-6.6,12.9-14.3,13.2c-8.8,0.3-16.6-6-18.7-13.7
		c-2.5-9.3,1.2-17.8,9.4-22.3c22.8-12.4,47.1-19.9,72.8-22.2c38.4-3.4,74.8,4.1,108.7,22.7c7.3,4,10.6,12.8,8.6,21.2
		c-1.8,7.6-10.3,14.8-18.9,14.2c-7-0.4-12.1-4.2-13.8-11.1c-1.5-6,1.4-12.7,7.1-15.5c2.2-1.1,4.7-1.5,7.1-2.2
		C366.2,128.7,366.3,128.3,366.4,127.9z"/>
	<path d="M284.8,264.1c13.4,0,24.8,11.2,24.8,24.3c0,13.8-11.2,25-24.8,25c-13.6-0.1-24.4-10.9-24.5-24.5
		C260.3,275.2,271.2,264.1,284.8,264.1z"/>
</g>
</svg>
