<?xml version="1.0" encoding="utf-8"?>
<!-- Generator: Adobe Illustrator 22.1.0, SVG Export Plug-In . SVG Version: 6.00 Build 0)  -->
<svg version="1.1"
	 id="svg1923" inkscape:export-filename="D:\tmp\Mitsubaaoi.png" inkscape:export-xdpi="90" inkscape:export-ydpi="90" inkscape:version="0.47+devel r9492" sodipodi:docname="20101205093849!Mitsubaaoi.svg" sodipodi:version="0.32" xmlns:cc="http://creativecommons.org/ns#" xmlns:dc="http://purl.org/dc/elements/1.1/" xmlns:inkscape="http://www.inkscape.org/namespaces/inkscape" xmlns:rdf="http://www.w3.org/1999/02/22-rdf-syntax-ns#" xmlns:sodipodi="http://sodipodi.sourceforge.net/DTD/sodipodi-0.dtd" xmlns:svg="http://www.w3.org/2000/svg"
	 xmlns="http://www.w3.org/2000/svg" xmlns:xlink="http://www.w3.org/1999/xlink" x="0px" y="0px" viewBox="0 0 570 570"
	 style="enable-background:new 0 0 570 570;" xml:space="preserve">
<style type="text/css">
	.st0{fill:#118211;}
</style>
<sodipodi:namedview  bordercolor="#666666" borderopacity="1.0" fit-margin-bottom="0" fit-margin-left="0" fit-margin-right="0" fit-margin-top="0" gridtolerance="10.0" guidetolerance="10.0" height="511px" id="base" inkscape:current-layer="svg1923" inkscape:cx="128" inkscape:cy="127.99239" inkscape:pageopacity="0.0" inkscape:pageshadow="2" inkscape:window-height="544" inkscape:window-maximized="1" inkscape:window-width="1024" inkscape:window-x="-4" inkscape:window-y="-4" inkscape:zoom="1.4336789" objecttolerance="10.0" pagecolor="#ffffff" showgrid="false" width="511px">
	</sodipodi:namedview>
<path id="path2853" inkscape:connector-curvature="0" class="st0" d="M256.6,569.3c-20-1.9-50.1-8.7-68.9-15.6
	c-15.8-5.8-45.1-20.5-58.8-29.5C58.4,478,13.8,406.7,1.5,320.8c-2.2-15.6-1.9-59.9,0.7-76.5c9.4-62.1,37-116.9,81.1-161
	s98.9-71.7,161-81.1c16.7-2.5,60.9-2.9,76.5-0.7c56.7,8.1,105.4,29.3,146.9,63.9c30.8,25.7,55.2,56.8,73.2,93.3
	c13.9,28.2,20.8,49.5,26,79.9c3.3,19.5,4.2,59.8,1.6,80.5c-15.9,130.7-118.1,233.2-248.3,249.3C307.4,570,269.6,570.5,256.6,569.3
	L256.6,569.3z M323.6,519c51.6-8.7,95.8-31.9,132.3-69.4c11.5-11.8,23.8-26.5,22.9-27.3c-0.2-0.2-3.4-1.9-7.2-3.9
	c-3.7-2-9.1-5.3-12-7.4l-5.2-3.8l2.1-6c2.5-7.3,2.6-10,0.5-15c-1.6-3.8-1.5-3.9,0.8-3.9c3.5,0,11.1-3.7,13.6-6.6
	c1.2-1.3,3-2.4,4-2.4c4.1,0,19.9-4.7,27.2-8c8.7-4,8.6-3.8,13.9-25.7c6.2-25.9,7.9-57.6,4.5-84.1c-9-69.5-47.8-131-106.9-169.4
	C385.6,67.2,345.9,53.1,313,49.7c-2-0.2-2.2,0.7-2.4,13.3c-0.3,15.1-0.8,17.4-4.3,17.5c-4.9,0-11.1,2.5-14.6,5.8
	c-2,1.9-2.9,3.1-2.1,2.6c1.2-0.6,1.2-0.4,0.1,1.5c-1.4,2.2-1.5,2.1-4.5-2c-1.8-2.4-5.4-5.3-8.5-6.8c-3.3-1.6-8.4-5.7-13.1-10.8
	c-4.2-4.5-11.1-10.5-15.4-13.3l-7.7-5.1l-12.8,3.3c-74.2,19.2-135,73.2-162.3,144.2c-10.7,27.9-15.6,54.2-15.7,84.4
	c-0.1,30,4.5,56.2,14.5,83c6.7,17.9,5.3,17,15.1,10.4c4.6-3.1,10.6-6.4,13.3-7.5c4.7-1.8,4.9-1.8,6.6,0.6c3.3,4.7,10.6,9.1,15.1,9.1
	h4.3L117,383c-1.8,3.5-2.1,11.2-0.6,15.2c0.7,1.9,0.2,4.9-1.8,11c-2.2,6.4-3,11.6-3.4,21.8l-0.6,13.4l10.4,10.1
	c36.9,35.5,84.7,59,132.3,64.9c5.6,0.7,11.4,1.5,12.9,1.7C272.6,522.2,313.5,520.7,323.6,519L323.6,519z M346.9,491.7
	c-1.4-0.4,1.8-2.5,10.1-6.6c6.7-3.3,13.9-7.2,16-8.6l3.8-2.6l-0.9,3.3c-0.5,1.8-1,5.9-1.2,8.9l-0.3,5.6l-12.8,0.2
	C354.7,492.1,348,492,346.9,491.7L346.9,491.7z M201.7,490.5c-2.6-0.4-3.1-0.9-2.6-2.9c0.6-2.2-0.5-9.3-2.2-13.5
	c-0.4-1.2,2.7,0.2,8.7,3.8c5.2,3.1,12.1,6.7,15.3,8c3.3,1.3,5.9,2.8,5.9,3.2C226.8,490.9,210.5,491.8,201.7,490.5z M381,489.9
	c0-0.3,2-1.9,4.5-3.5c3.2-2.1,4.5-2.5,4.5-1.4c0,0.9-0.6,2.1-1.4,2.7C387,489,381,490.7,381,489.9L381,489.9z M187.8,487.7
	c-2.1-0.7-3.8-2.1-4.2-3.5c-0.3-1.3-0.5-2.4-0.4-2.6c0.1-0.1,2.8,1.5,5.8,3.6C194.7,489.1,194.4,489.8,187.8,487.7z M331.2,485.4
	c-3.6-2-8.8-5.6-11.7-8.1l-5.2-4.4l10.2-2.6c5.6-1.4,14.7-4.4,20.1-6.5c5.4-2.2,10-4,10.2-4c0.2,0-1.2,2.3-3.1,5.2
	c-1.9,2.8-5.5,9.4-8,14.6c-2.4,5.2-4.8,9.5-5.2,9.5C338,489,334.8,487.4,331.2,485.4L331.2,485.4z M231.4,481.1
	c-1.4-3.6-5.1-10.4-8.1-15.1l-5.5-8.5l4.2,1.8c9.6,4.2,26.4,9.6,31.8,10.2l5.7,0.7l-2.6,2.8c-2.7,3-15.3,11.3-20.1,13.4
	C234.1,487.6,233.9,487.5,231.4,481.1L231.4,481.1z M377.6,485.3c0-4.9,3.7-13.3,7.2-16.5c15.8-14.3,24.5-21.4,22.4-18.5
	c-1.4,1.9-5.4,9.1-9.1,16c-6.2,11.7-7.1,12.8-13.6,17C377.9,487.7,377.6,487.8,377.6,485.3L377.6,485.3z M188.2,481.1
	c-5.8-3.9-7.2-5.6-12-14.9c-3-5.8-6.8-12.7-8.5-15.4c-3-4.8-2.8-4.7,6.5,3.6c5.3,4.7,11.1,9.7,13,11.1c4,3,8.4,12.3,7.9,16.9
	l-0.3,3.2C194.7,485.6,188.2,481.1,188.2,481.1z M346.4,483.5c1.1-4.3,9.9-18.7,17.5-28.9c4.1-5.4,13.2-15.7,20.4-22.9
	c12.8-12.9,13.2-13.1,26-18.7l13-5.6l4.8,2.1l4.8,2.1l-3.7,5.1c-22.9,31.9-58.2,61.9-80.7,68.5C346.1,485.8,345.9,485.6,346.4,483.5
	L346.4,483.5z M393.4,484.2c0-5,20.3-41,33.7-59.8c8.2-11.6,8.6-12,13.8-16.8c5.8-5.3,3.8-13.2-4.4-17.4c-2-1-2.6-0.9-3.2,0.7
	c-0.5,1.3-0.1,2.4,1.2,3.1c2.9,1.7,6.1,4.9,6.1,6.2c0,1.9-5.4,6.7-7.5,6.7c-5.5,0-12.7-8.2-12.7-14.4c0-3.2,4.5-9.4,9-12.4
	c7.7-5.2,12.2-4.7,19.1,1.7c7.5,7.1,7.4,13.8-0.4,26.6c-2.2,3.7-4.3,8.5-4.6,10.7c-0.9,5.3-7.5,22-13.3,33.3
	c-5.6,11-18.2,24.1-28.5,29.5C393.9,486.2,393.4,486.3,393.4,484.2L393.4,484.2z M171.8,480.3c-9.9-6-17.3-12.7-23.3-21.1
	c-5.8-8.2-16.4-31.7-18.4-40.9c-0.7-3.3-3.2-9.1-5.4-12.8c-3.2-5.2-4.2-8.2-4.6-13.4l-0.5-6.7l5.2-5c4.5-4.3,5.9-5,10-5
	c8.4,0,17.7,8.2,17.7,15.6c0,9.9-11.7,17.7-17.3,11.6c-2.9-3.2-2.3-6.8,1.5-9c4.1-2.3,4.8-6.4,0.9-5.3c-3.6,1-8.7,6.9-8.7,9.9
	c0.1,3.4,2.5,7.6,5.4,9.2c8.3,4.4,51.2,77.2,45.5,77.2C179.3,484.6,175.7,482.7,171.8,480.3L171.8,480.3z M223.4,482.9
	c-8-2.8-20-9.6-29.3-16.4c-12.3-9.1-31.9-28.7-44.2-44.4l-9.7-12.3l5.3-2l5.3-2l12.4,5.3c12.1,5.2,12.7,5.7,25.3,18.3
	c15,15,27.8,31.5,34.7,44.8c2.7,5.2,4.7,9.5,4.5,9.7C227.5,484.1,225.6,483.7,223.4,482.9L223.4,482.9z M304.7,460.5
	c-4.7-7.1-9.3-16.6-9.3-19.1c0-0.9,4.3-1.4,14.4-1.5c7.9-0.1,16.8-0.7,19.9-1.3l5.6-1.1l-6.4,5.6c-3.5,3.1-9.2,9.9-12.7,15.1
	c-3.5,5.2-6.4,9.5-6.5,9.5C309.6,467.7,307.3,464.4,304.7,460.5L304.7,460.5z M318.1,463.2c5.8-10.4,22-26.4,28-27.8
	c8.9-2,30.9-8.8,40-12.3c1.2-0.5-1.8,3.4-6.8,8.6c-5,5.2-11.2,12.1-13.9,15.3c-4.3,5.2-6.4,6.5-17.4,11.2
	c-14.5,6.1-24.7,9.4-29.2,9.4l-3.2,0L318.1,463.2L318.1,463.2z M248.2,464.8c-6.5-1.6-22.5-7.8-30.6-11.9c-2.6-1.3-7.1-5-9.8-8.2
	c-2.8-3.2-9-9.9-13.9-15l-8.9-9.2l12.2,4.3c6.7,2.4,16.8,5.4,22.4,6.9c8.7,2.2,11.2,3.4,17.4,8.5c7.5,6,14.2,13.8,19,21.9
	C259,467.3,258.7,467.4,248.2,464.8z M258.9,458.5c-2.4-3.9-7.9-10.7-12.2-14.9c-5.5-5.5-7-7.5-5.1-7c1.5,0.4,10.4,1.1,19.9,1.4
	c16.9,0.6,17.2,0.7,16.5,3c-1.3,4.3-8.4,17.1-11.5,20.9l-3.1,3.7C263.3,465.7,258.9,458.5,258.9,458.5z M302.3,435.2
	c-2.6-0.7-2.4-1,3.9-5.9c17-13,40.4-25.3,66.2-34.9c8.7-3.2,9-3.3,25.9-2.5l17.1,0.7l2.4,6.1l2.4,6.1l-7.5,3.4
	c-32.3,14.6-64.5,24.1-90.1,26.8C309.8,436.3,306.4,436.3,302.3,435.2L302.3,435.2z M241.4,432.2c-11.4-1.8-24.5-5-39.3-9.8
	c-18.6-5.9-48.4-18.3-48.4-20.1c0-0.5,0.8-2.3,1.7-4.1s1.7-4.4,1.7-5.8c0-2.5,0.1-2.5,18.8-2.5h18.7l13.1,5.2
	c24.1,9.6,57.5,28.4,64.7,36.3l2.1,2.4l-11.7-0.1C256.3,433.7,246.7,433,241.4,432.2L241.4,432.2z M293.9,426.8
	c-0.4-3.2-0.7-9.8-0.7-14.6c0-8.7,0-8.8,2.5-8c8.5,2.8,22.2,6.1,25.4,6.1c4.8,0.1,4.1,1.1-4.5,6.1c-3.9,2.3-10.4,6.9-14.5,10.2
	l-7.5,6L293.9,426.8L293.9,426.8z M274.6,427.5c-5-4.4-15.6-11.8-22.2-15.5l-4.4-2.5l10.3-1.9c5.7-1,12.9-2.9,16-4.1
	c3.2-1.2,5.9-2.1,6-1.9c0.1,0.1-0.1,6.9-0.5,15l-0.7,14.8C279.1,431.4,274.6,427.5,274.6,427.5z M314,405.1
	c-8.8-1.7-17.4-4.7-17.4-6.1c0-1.2,12.6-7.2,19.7-9.4c12.2-3.8,19.1-4.4,30.7-2.4c6,1,14.5,2.2,18.8,2.6l7.9,0.8l-6.2,2.1
	c-3.4,1.1-12.6,4.8-20.4,8.1C331.5,407.5,328.3,407.9,314,405.1L314,405.1z M230.2,400.9c-5.9-2.7-14.6-6.3-19.4-8.1
	c-4.8-1.7-8.6-3.3-8.4-3.5c0.7-0.7,32-5,36.4-5c6.7,0,21.2,4,30.6,8.4c4.5,2.1,8.2,4.2,8.2,4.5c0,2.1-16.6,6.4-29.8,7.8
	C241.3,405.8,240.1,405.5,230.2,400.9L230.2,400.9z M292.8,386.9c-1-10.2-0.9-17.4,0.1-16.9c7.2,3.7,16.2,7.4,23.7,9.9l9.3,3
	l-7.6,1.9c-4.2,1-11.4,3.6-15.9,5.8c-4.6,2.2-8.4,3.9-8.6,3.9C293.7,394.5,293.2,391.1,292.8,386.9L292.8,386.9z M275.8,391.1
	c-4.7-3-14.5-6.6-22.5-8.3l-6.7-1.4l8.4-2.5c4.6-1.4,12.2-4.3,16.7-6.4c4.6-2.1,8.5-3.8,8.7-3.8c0.2,0,0.4,5.6,0.4,12.4
	s-0.4,12.3-0.8,12.3C279.5,393.3,277.6,392.3,275.8,391.1L275.8,391.1z M384.4,387.7c-23.2-1.8-47.3-6-63.2-11.2
	c-10.2-3.3-24.6-9.9-24.6-11.2c0-1.6,17.8-4.6,34.4-5.9c12.5-0.9,21.9-1,35-0.1c15.7,1,18.6,1.5,23.7,4.2c3.2,1.6,12,5.5,19.6,8.6
	c7.6,3.1,14,5.9,14.3,6.2s-1.1,2.3-3,4.5c-1.9,2.2-3.5,4.5-3.5,5.1C417,389.1,401.9,389,384.4,387.7L384.4,387.7z M155.9,385.6
	c0-0.6-1.6-2.9-3.5-5.1c-3.2-3.6-3.3-4-1.4-4.7c1.1-0.4,10.2-4.3,20.1-8.6c12.9-5.6,20.3-8.2,25.9-8.9c12.1-1.7,56.6-0.5,68.1,1.9
	c13.7,2.8,14,3.1,5.8,7.3c-16.1,8.1-41.7,14.4-71.3,17.5C180.9,386.9,155.9,387.2,155.9,385.6L155.9,385.6z M448.9,374.9
	c-5.2-2.4-6-3.3-7.1-7.5c-2.1-7.6,0.6-17,5.9-20.7c3.3-2.3,10.4-2.2,14.4,0.1c9.2,5.4,4.8,17-4.6,12.1c-2.5-1.3-3.9-1.5-4.7-0.7
	c-3.1,3.1,8,8.3,12.5,5.9c3.2-1.7,5.7-5.7,6.2-9.7c0.5-4.3,13.5-30.3,22.8-45.8c7.3-12.2,19.4-29.2,21.7-30.6
	c1.9-1.2,1.5,19.8-0.6,27.9c-2.6,10.2-8.7,20.9-17.2,30.3c-7.7,8.5-20.4,24-27,32.8c-3.9,5.2-9.4,8.6-13.9,8.6
	C455.9,377.6,452.1,376.4,448.9,374.9L448.9,374.9z M107.7,372.9c-2-1.4-5.5-5.1-7.8-8.3c-4.3-5.9-16.8-21.2-27.7-33.9
	c-7.4-8.6-12.8-19.4-15-29.9c-1.8-8.5-1.7-23.9,0.1-23.9c1.6,0,11,12.8,19.6,26.7c9.6,15.3,24.8,45.7,24.8,49.5
	c0,1.7,1.3,4.6,2.9,6.5c3.5,4.2,8.2,4.6,13.8,1.2c3.1-1.9,3.5-2.6,2.4-4c-1.2-1.5-1.7-1.5-4,0c-4,2.6-8.2,2.2-9.6-1
	c-2.2-4.7-0.3-8.4,5.4-11c4.4-2,5.8-2.1,9.5-1c5.8,1.7,9.2,6.7,9.8,14.3c0.7,8.5-1.2,12.3-7.4,15C118,376.1,112.3,376,107.7,372.9
	L107.7,372.9z M415.3,371c-26.3-11.1-57-28.5-78.2-44.3c-12-8.9-39.5-35.9-37.4-36.7c2-0.7,17.1,2.8,28.9,6.7
	c25.3,8.3,70.2,34,97.1,55.4c9.2,7.4,10.5,9.1,11.8,16c0.7,3.4,0.5,3.6-4.8,5.3c-3,1-5.9,1.8-6.4,1.8
	C425.9,375.3,420.9,373.4,415.3,371L415.3,371z M142.4,372.6c-1.5-0.9-3.7-1.6-4.8-1.6c-1.8,0-1.9-0.8-1.3-5.9c0.4-3.3,0.8-6,0.9-6
	c7.1-6.1,26.8-20.8,37.5-27.9c24.4-16.2,48.7-28.6,70.5-36.1c9.3-3.2,27.9-7.6,28.7-6.8c0.8,0.8-8.5,11.3-18.4,20.6
	C238.4,325,216,340.4,188.4,355c-12,6.3-40.6,19.3-42.4,19.2C145.6,374.2,143.9,373.5,142.4,372.6L142.4,372.6z M292.1,346v-14.7
	l5.9,5.3c3.2,2.9,10.8,8.2,16.9,11.8l11,6.5l-7.6,0.8c-4.2,0.4-11.4,1.8-15.9,2.9c-4.6,1.2-8.8,2.1-9.3,2.1S292.1,354.1,292.1,346z
	 M276.3,358.3c-3.9-1.6-18.6-4.3-23.2-4.3c-2.1,0-3.8-0.4-3.8-0.9s4.5-3.6,10-6.8c5.5-3.2,12.6-8.2,15.8-11l5.8-5.1v14.7
	c0,8.1-0.4,14.7-0.8,14.6C279.5,359.5,277.9,359,276.3,358.3L276.3,358.3z M366.9,356.2c-3.7-0.5-12.4-0.9-19.3-1l-12.6-0.1l-10-5.2
	c-15.8-8.3-28.2-17.4-26.7-19.7c0.8-1.4,21-1.2,29.4,0.3c5.8,1,9.3,2.6,17.5,8c5.7,3.7,15.1,9.5,21,12.8c5.9,3.3,9.9,5.9,9,5.9
	C374.5,357.1,370.7,356.7,366.9,356.2L366.9,356.2z M424.3,347c-6.8-5.5-14.7-11.6-17.6-13.6c-6.1-4.2-15.1-17.8-27-40.8
	c-7.3-14.1-15.6-35.6-15.6-40.1c0-1.9,0.9-1.6,7,2.6c19.6,13.5,48.9,49.6,67.8,83.8l3.2,5.7l-2.3,5c-1.3,2.7-2.5,5.5-2.7,6.2
	C436.9,356.4,431.2,352.5,424.3,347z M135.6,353.2c0-1.1-1-3.7-2.3-5.7l-2.3-3.8l4.1-7.5c6.4-11.6,24.1-38,32.6-48.6
	c13.5-16.9,39.3-40.4,41.7-38c0.4,0.4-1.2,6.1-3.4,12.9c-8.2,24.6-28.2,60.2-38.6,68.5c-15.6,12.6-30.6,24.2-31.2,24.2
	C135.9,355.1,135.6,354.2,135.6,353.2z M198.7,354.8c0.3-0.3,4.4-2.8,9-5.4c4.6-2.6,13.4-8,19.5-12c9.6-6.3,12.2-7.5,19.7-8.8
	c8.9-1.6,20.9-1.9,26.5-0.6l3.2,0.7l-5,4.6c-4.9,4.5-15.2,11-26.3,16.5c-4.8,2.4-7.8,2.9-20.8,3.5c-8.4,0.4-17.7,1-20.8,1.4
	C200.6,355.1,198.4,355.2,198.7,354.8L198.7,354.8z M467.5,345.6c-1.7-1.4-3.6-2.8-4.3-3c-0.7-0.2-1.7-6.3-2.4-14.6
	c-1.1-13.6-1.1-14.6,1.7-25c5.7-21.3,16.1-45.5,25.7-59.7c2.6-3.9,4.9-6.2,5.5-5.6c1.9,1.9,2.5,20.9,1.1,33
	c-2.3,19.9-10.5,47.6-20.6,69.5l-3.7,8L467.5,345.6L467.5,345.6z M99.2,338C90,317.8,83,295.7,79.9,276.9c-1.7-10.3-2.1-34.8-0.7-40
	c0.8-2.7,0.9-2.7,4.9,2.8c9.5,13.1,19.9,36.5,26.6,60.4c3.3,11.6,3.3,11.9,2.1,26c-0.7,7.9-1.6,14.3-2,14.3c-0.5,0-2.4,1.3-4.3,2.9
	l-3.5,2.9C103,346.3,99.2,338,99.2,338z M436,327.7l-8.6-15l-2-14.5c-2.5-18.2-2.8-54-0.6-68.5l1.5-10l2.1,2.7
	c3.8,4.9,11.1,21,15,32.8c6.5,19.8,12.2,50.7,13.7,73.6l0.7,11.4l-4.9,0.6c-2.7,0.3-5.7,0.9-6.6,1.2
	C445.1,342.5,442.3,338.7,436,327.7L436,327.7z M126.3,340.4c-1.1-0.6-4-1.2-6.5-1.3c-5.2-0.2-5,0.8-3.3-15.6
	c1.8-18.6,6.5-44.8,10.7-60.1c4.3-15.8,8.3-25.9,14.6-37.2c5-8.9,5.5-8.5,7.3,5.2c2.9,23,0.2,71.6-4.5,81.6
	c-1.8,3.8-12.4,22.5-15.4,27.3C128.6,341.2,127.8,341.2,126.3,340.4L126.3,340.4z M292.1,316.2c0-5,0.3-12.9,0.7-17.6l0.7-8.5
	l4.9,6.6c2.7,3.6,10.1,11.5,16.5,17.6l11.6,11.1h-17.2h-17.2L292.1,316.2L292.1,316.2z M258,312.9c6.9-6.6,14.9-15,17.7-18.8
	l5.1-6.8v18.7v18.7l-3.1-0.8c-4.2-1.1-24.8-1.1-28.9,0C246.1,324.7,248,322.5,258,312.9L258,312.9z M385,318.9
	c-4.9-3.1-14.2-8.5-20.5-11.8c-10.3-5.4-12.2-6.9-17.2-13.6c-9-11.9-15.3-25-12.2-25c2.8,0,18.2,7.9,28.1,14.4
	c8.2,5.4,10.3,7.4,13.3,12.8c2,3.6,6.5,10.9,10,16.4c7.6,11.6,8.3,12.7,7.8,12.6C394.1,324.6,389.9,322,385,318.9z M179,322.4
	c0.4-0.6,3.9-5.9,7.8-11.9c3.9-5.9,8.6-13.5,10.3-16.8c2.7-5.1,4.7-7.1,13.3-12.7c10.9-7.2,17.6-10.8,24.4-13.2
	c5.7-2,5.7-0.7-0.2,10.6c-7.6,14.5-13.5,20.8-25.3,26.8c-5.6,2.8-14.9,8.1-20.6,11.7S178.6,323,179,322.4L179,322.4z M79.3,301.9
	c-2.2-3.8-6.5-10.5-9.7-15c-5.5-7.7-5.8-8.5-6.3-16.6c-0.5-7.9-0.4-8.5,1.4-7.5c4.1,2.2,11.1,11.5,11.8,15.6c0.4,2.3,2.1,9.9,3.8,17
	c1.7,7.1,3.1,13,3,13.1C83.3,308.7,81.5,305.7,79.3,301.9L79.3,301.9z M490.8,307.3c0.4-1.2,1.9-7.8,3.5-14.6
	c1.5-6.8,3-13.5,3.3-14.9c0.6-2.9,7.6-11,10.9-12.8c2.1-1.1,2.1-0.8,1.4,7.3c-0.8,8.1-1.2,9.1-8.8,20.8c-4.4,6.8-8.7,13.2-9.5,14.4
	C490.1,309.5,490.1,309.4,490.8,307.3L490.8,307.3z M150.7,301.7c1.2-6.3,4.1-31.4,4.1-36.1c0-5.6,6.2-15.1,17-26
	c8.8-8.9,9.7-8.1,7.8,7.2c-1.8,15.1-5.7,26.2-12.4,34.5c-3,3.8-8.1,10.6-11.3,15.3C151.3,303.3,150.2,304.3,150.7,301.7z
	 M411.7,290.4c-11.2-14.9-13.8-20.2-16.5-33.6c-1.9-9.2-2.4-22.2-0.8-22.2c1.4,0,14.8,14.4,19.6,20.9c3.9,5.4,4.2,6.4,5.3,18.6
	c0.6,7.1,1.7,16.6,2.4,21.1c0.7,4.5,1,8.4,0.8,8.6C422.3,304.1,417.4,298,411.7,290.4L411.7,290.4z M114.4,301.7
	c-0.1-1.2-2.9-10.5-6.3-20.6l-6.2-18.4l1.2-12.6c1.3-13.3,3.4-25.1,5.6-30.6c1.4-3.8,1.6-3.7,6.7,6.2c4.4,8.5,8.1,21.2,8.3,28.4
	c0.1,3.3-1.2,12-2.9,19.4c-1.7,7.4-3.8,17.3-4.6,21.9C115.2,300.1,114.5,302.9,114.4,301.7z M456.6,294c-0.7-5.1-2.6-14.5-4.2-20.9
	c-3.4-14.1-3.5-18.6-0.5-29.5c2.4-8.8,9.7-24.7,11.2-24.7c2.3,0,6.4,19.8,7.4,35.8l0.7,10.9l-6.2,18.3c-3.4,10.1-6.4,18.6-6.6,18.8
	C458.2,303.1,457.4,299.1,456.6,294L456.6,294z M330.2,292.5c-7.8-2.7-18.1-5.6-22.8-6.3c-4.7-0.8-8.6-1.6-8.6-2
	c0-0.8,29.3-17.3,29.7-16.7c0.2,0.2,1.4,3.4,2.8,7.1c1.4,3.7,5,10.4,8,14.9c3,4.5,5.4,8.1,5.3,8.1
	C344.5,297.5,338,295.2,330.2,292.5z M232.6,290.3c4.5-6.2,9-14.7,11-21l1.3-4.1l13.2,7.4c19.3,10.9,18.6,9.8,7.3,12
	c-8.2,1.6-25.7,6.8-34.6,10.4C229,295.7,229.4,294.7,232.6,290.3L232.6,290.3z M364.1,279c-6.6-4.6-17.1-10.2-23.4-12.4
	c-3.3-1.1-5.9-2.3-5.9-2.7c0-0.7,23.7-13.9,24-13.4c0.1,0.2,1.1,3.8,2.2,8c1.1,4.2,3.2,10.9,4.9,15c1.6,4,2.8,7.5,2.6,7.7
	C368.2,281.6,366.3,280.5,364.1,279z M208.4,269.6c2.1-5.5,4.3-12.6,5-15.8l1.2-5.7l4.7,2.7c2.6,1.5,8.2,4.7,12.5,7
	c7.3,4,7.6,4.3,5.1,5.4c-8.4,3.3-18.2,8.2-24.3,12.1c-3.9,2.4-7.2,4.4-7.5,4.4C204.8,279.7,206.3,275.2,208.4,269.6z M268.3,270.5
	l-15.4-9l5.8-8.1c3.2-4.5,7.3-11.4,9.1-15.4l3.3-7.3l1.4,7.9c1.9,10.8,4.5,20.6,8.4,31.3c1.8,5,3.2,9.1,3,9.3
	C283.8,279.4,276.7,275.5,268.3,270.5z M292.4,276c3.7-9.6,7.9-24.3,9.5-32.9c1.1-5.8,2.2-10.6,2.5-10.6c0.3,0,1.6,2.4,2.8,5.3
	c1.2,2.9,4.9,9.3,8.2,14.2c3.3,4.9,5.9,9,5.7,9.1c-1,0.7-24.4,14-26.7,15.2C292.1,277.5,291.8,277.5,292.4,276z M512.8,274
	c0.1-1.5,0.5-4,0.9-5.6c0.8-2.7,0.8-2.7,1.7,1c0.7,2.8,0.4,4.2-0.9,5.6C512.9,276.7,512.7,276.6,512.8,274z M58.9,273.2
	c-1.3-1.6-1.5-2.8-0.6-5.9c0.6-2.2,1.3-3.2,1.5-2.3c0.4,2.3,1.2,10.1,1,10.1C60.6,275.2,59.8,274.3,58.9,273.2z M285.9,270.1
	c-3.2-7.2-8.3-29-10.1-42.6c-3.7-28.5-3.3-62.8,1.1-94.4c1.7-12.3,1.8-12.5,6.3-16.5l4.6-4.1l4.4,4c4.2,3.8,4.4,4.4,6,15.8
	c6.7,46.8,4.1,98.5-6.6,130.9l-3.8,11.4C287.9,274.6,285.9,270.1,285.9,270.1z M498.6,253.1v-16.3l2.5,3.2c1.4,1.7,4.4,6.7,6.7,11
	c3.9,7.4,4,7.9,2,9c-1.1,0.7-4.1,3-6.7,5.3l-4.6,4.1V253.1z M387.2,262.1c-3.7-3.4-9.9-8.5-13.8-11.3l-7.1-5.1l10.8-6.1
	c5.9-3.3,11-6.1,11.3-6.1c0.3,0,0.5,3.1,0.5,6.8c0,7,2.8,22.6,4.6,26.1C395,269.3,394.7,269.1,387.2,262.1z M70.9,263.9
	c-1.9-2-4.8-4.2-6.5-5l-3.1-1.4l4.1-8c2.3-4.4,5.4-9.6,7.1-11.6l3-3.6l-0.3,11.1c-0.2,6.1-0.4,13.5-0.6,16.5l-0.3,5.4
	C74.3,267.5,70.9,263.9,70.9,263.9z M182.1,257.9c1.1-4.4,2.1-12.2,2.3-17.2l0.2-9.2l8.8,4.7c4.8,2.6,9.8,5.5,11.1,6.5
	c2.3,1.7,2.3,1.8-2.3,4.8c-2.5,1.7-8.6,6.5-13.4,10.8l-8.7,7.7C180,265.9,182.1,257.9,182.1,257.9z M235,250.9l-12.5-7.3l5-4.7
	c2.8-2.6,7.6-8,10.8-12c3.2-4.1,6.1-7.7,6.4-8.2c0.4-0.4,0.7,5.9,0.8,14.1c0.1,8.2,0.7,17.1,1.3,19.9c0.7,2.8,1.1,5.2,0.9,5.3
	C247.6,258.2,241.9,255,235,250.9z M328.3,253c0.6-2.3,1.5-10.9,1.9-19.2l0.7-14.9l5.9,7.8c3.3,4.3,8,9.6,10.4,11.8
	c2.5,2.2,4.5,4.2,4.5,4.5c0,0.4-23.5,14.2-24.2,14.2C327.3,257.2,327.7,255.3,328.3,253z M473.5,245.4c-0.8-6.5-2.6-15.9-4-20.8
	c-1.9-6.4-2.2-9-1.2-9c2.3,0,16.6,7.7,20.7,11.1l3.8,3.2l-4.6,6.1c-2.5,3.3-6.4,9.5-8.7,13.7c-2.3,4.2-4.2,7.6-4.4,7.6
	C475,257.2,474.3,251.9,473.5,245.4L473.5,245.4z M95.1,249.6c-1.5-2.9-5.4-8.9-8.6-13.4l-5.8-8.1l5.3-3.9
	c5.3-3.9,14.4-8.8,18.8-10.1c2.3-0.7,2.3-0.7-0.2,6.9c-1.4,4.2-3.3,13.4-4.3,20.5c-1,7.1-1.9,13-2.1,13.2
	C98,254.7,96.6,252.5,95.1,249.6L95.1,249.6z M251.1,253.6c-0.2-0.8-0.8-2.5-1.2-3.7c-0.4-1.2-0.7-10.1-0.7-19.8l0-17.6l9.9-19.2
	l9.9-19.1l0,25.4l0,25.4l-3.5,8c-3.3,7.7-10.9,20.1-13,21.4C252,254.8,251.4,254.4,251.1,253.6L251.1,253.6z M317.6,247.5
	c-2.8-4.3-6.5-11-8.2-15.1l-3.2-7.3l0-25.5l0-25.5l8.6,16.7c4.7,9.2,9.1,17.4,9.7,18.2c3,3.8,2.4,42-0.7,45.1
	C323,254.8,320.7,252.3,317.6,247.5L317.6,247.5z M413.4,248.5c-2.3-3-7.2-8.4-11-12c-3.7-3.6-6.8-6.7-6.8-6.9
	c0-1.7,25.4-13.8,26.6-12.6c0.3,0.3,0,2.7-0.7,5.3c-0.7,2.6-1.9,10.8-2.6,18.2l-1.3,13.5L413.4,248.5z M154.8,244.3
	c-0.1-8.6-2.2-23.5-4-28c-0.7-1.8-0.5-2,1.9-1.3c3.3,1,17.1,7.7,22,10.6l3.5,2.2l-8.7,8.8c-4.8,4.8-10,10.6-11.6,12.8l-3,3.9
	L154.8,244.3L154.8,244.3z M444.1,244.7c-1.7-5.8-8-19.2-11.9-25.4l-2.9-4.7l4.8-0.6c6.3-0.8,13.6-1.1,20.8-0.9l5.8,0.2l-5,9.4
	c-2.8,5.2-5.9,13-7,17.4s-2.3,8.3-2.6,8.6C445.8,249.1,444.9,247.3,444.1,244.7L444.1,244.7z M125.3,240c-1.1-4.5-4.2-12.5-6.9-17.9
	c-4-7.9-4.7-9.9-3.3-10.4c4-1.5,28.5-0.1,28.5,1.6c0,0.5-1.8,3.7-3.9,7.3c-2.1,3.6-5.5,10.3-7.4,15.1c-1.9,4.7-3.8,9.5-4.3,10.5
	C127.5,247.5,126.6,245.5,125.3,240z M204.6,232.7c-5.7-3.5-10.4-6.6-10.3-7c0-0.3,3.6-2.9,8-5.7c4.4-2.8,10.4-7.7,13.4-10.9
	c3-3.2,5.5-5.7,5.5-5.4c0,0.2-0.8,3.5-1.8,7.3c-1,3.8-2.4,11.7-3.1,17.5l-1.3,10.5C215,239.1,204.6,232.7,204.6,232.7z M221.6,228.5
	c1.5-21.7,12.7-54.3,29.7-86.1c9.7-18.2,11.3-20.5,13.8-19.7c1.2,0.4,4,0.2,6.1-0.4c4.5-1.3,4.6-1.2,2.9,7.3
	c-0.6,3.1-1.9,12.5-2.9,21.1c-1.7,14.8-2.1,16-7.5,27c-11.2,22.4-27.3,46.1-38.1,56.5l-4.7,4.5C220.9,238.6,221.6,228.5,221.6,228.5
	z M346.3,230.7c-9.3-10.1-24-32.3-33.2-50l-7.3-14.1l-1.8-16.2c-1-8.9-2.3-18.7-2.9-21.8c-0.6-3.1-1.1-6-1.1-6.5s2.1-0.4,4.7,0.2
	c2.6,0.6,5.3,0.8,6.2,0.5c1.9-0.7,4.4,2.9,13.2,19.6c18.4,35.1,30.8,72.6,29.8,90.2l-0.3,5.9L346.3,230.7L346.3,230.7z M359.2,230
	c-0.7-7.1-2.9-18.9-4.7-24.8c-0.3-1.1,1.9,0.7,5,4s9.4,8.4,14.1,11.5l8.5,5.5l-10.4,5.9c-5.7,3.3-10.7,6-11,6
	C360.3,238,359.6,234.4,359.2,230L359.2,230z M387.3,217c-0.6-4.5-4.9-18-7.9-25.2c-0.5-1.2,3.2,0.2,11.1,4.1
	c6.5,3.3,14.4,6.6,17.5,7.4c3.1,0.8,5.7,1.7,5.6,2.1c-0.1,1.4-23.2,17-25.3,17C388.2,222.3,387.7,219.9,387.3,217z M173.5,213.2
	l-12.3-7.9l8.9-3.1c4.9-1.7,12.8-5.1,17.6-7.7c4.8-2.5,8.7-4.5,8.7-4.4c0,0.1-1.7,4.9-3.8,10.8c-2.1,5.9-4.2,12.8-4.6,15.5
	s-1.1,4.8-1.5,4.8C186.1,221.2,180.2,217.6,173.5,213.2z M191.9,218.9c0-4.5,3.5-16.1,7.5-24.9c3.4-7.4,4.8-9.2,9.8-12.5
	c3.2-2.1,10.7-7.7,16.8-12.5c6.1-4.7,11.2-8.6,11.5-8.6s-1.7,5-4.4,11c-2.7,6.1-5.5,13.1-6.3,15.7c-2.6,8.8-17.9,24.7-30.4,31.7
	l-4.5,2.5C191.9,221.3,191.9,218.9,191.9,218.9z M375.3,216.5c-8.9-5.7-21.1-18.1-24.4-24.7c-2-4-6.1-13.6-13.6-31.8
	c-0.2-0.6,2.7,1.5,6.5,4.7c3.8,3.2,11.9,9.3,18,13.7l11.1,7.9l4.7,11.8c4.1,10.3,7.1,23.1,5.5,23.1
	C382.7,221.2,379.2,219.1,375.3,216.5z M152.6,196.9c-2.8-3.2-12.5-20.5-12.5-22.3c0-0.2,4.9-0.7,11-1.1c6.2-0.4,14.2-1.6,18.2-2.9
	c4-1.3,7.5-2.1,7.7-1.9c0.2,0.2-2.2,3.8-5.4,7.9c-3.2,4.1-8,11.2-10.7,15.9l-4.8,8.4L152.6,196.9L152.6,196.9z M165.9,193.4
	c11.4-21.4,41.2-51.2,76-76.1l8.9-6.4l2.2,3.6c1.2,2,3.1,4.4,4.2,5.3c2,1.6,1.7,2.4-6.2,16.1c-4.6,7.9-8.5,14.8-8.6,15.3
	c-0.6,1.5-17,14.2-27.9,21.7c-17.2,11.8-37.4,22.5-49.4,26.2C162.4,200,162.4,200,165.9,193.4z M405.1,197.5
	c-16.1-6.2-40.5-20.8-59.7-35.7c-11.9-9.2-11.5-8.7-21.5-26.5l-7.5-13.3l4.8-5l4.8-5l7.6,5.4c23.7,16.9,50.7,41.5,63.9,58.3
	c7.1,9.1,16.2,24.2,14.5,24.1C411.3,199.7,408.2,198.7,405.1,197.5L405.1,197.5z M414.8,193.3c-1.9-3.6-6.1-10-9.4-14.2
	c-3.2-4.3-6.5-8.6-7.3-9.7c-1.2-1.6-0.1-1.4,6.8,0.9c5.4,1.8,11.9,2.9,19.1,3.3c6,0.3,11,0.9,11,1.3c-0.1,3-14.1,24.9-15.9,24.9
	C418.6,199.8,416.7,196.9,414.8,193.3z M144.6,166.1c3-4.3,14-13.5,25.9-22c7.1-5,9.7-6.2,16.3-7.3c4.3-0.7,12.9-2.6,19.1-4.1
	c6.2-1.5,11.4-2.6,11.6-2.4c0.2,0.2-2,2.3-5,4.7c-3,2.4-10.5,9.3-16.7,15.3c-11,10.6-11.6,11-21.9,14.5c-7.6,2.5-13.6,3.7-21.3,4.2
	l-10.7,0.6C142,169.8,144.6,166.1,144.6,166.1z M410.8,167.7c-13.7-3-19.2-5.9-28.4-14.8c-4.8-4.6-12.4-11.5-16.9-15.3
	c-4.5-3.8-8-7-7.7-7.3c0.2-0.2,5.4,0.8,11.6,2.4c6.1,1.5,14.7,3.4,19,4.1c6.4,1.1,9.4,2.4,16,6.9c10.4,7.2,24,18.8,26.6,22.6l2,3
	l-7.6-0.1C421,169.3,414.6,168.6,410.8,167.7L410.8,167.7z M137.3,165.5c-1.2-4-1.8-24.7-0.8-26.2c0.8-1.1,2.9-1.2,9.9-0.2
	c5,0.7,12.4,0.9,16.8,0.5l7.8-0.8l-7.3,5.4c-4,2.9-11.4,9.4-16.5,14.4C139.2,166.5,137.9,167.4,137.3,165.5z M430.5,161.1
	c-3.4-3.7-10-9.7-14.6-13.3c-4.6-3.7-8.9-7.2-9.6-7.8c-0.7-0.7,1.6-0.8,6.2-0.3c4,0.4,11.1,0.2,15.8-0.5c5.5-0.8,8.8-0.8,9.5-0.1
	c1.4,1.4,1.4,24.7,0,26.9C436.9,167.4,435.6,166.5,430.5,161.1L430.5,161.1z M145.3,134.7l-3.3-0.8l6.1-4.7
	c18-13.9,48.7-24.8,84.5-30.1c6.6-1,13.5-1.8,15.4-1.8c3.4,0,3.4,0.1,2.3,4c-0.6,2.2-0.8,4.4-0.5,4.9c0.3,0.5-4.9,4.8-11.6,9.5
	c-11.5,8.1-13,8.8-25,11.9c-7,1.8-17.6,4.1-23.5,5.1C178.1,134.8,150.6,136,145.3,134.7z M400.7,134.9c-11.5-1.4-27.6-4.4-38.7-7.3
	c-11.8-3.1-13.7-3.9-24.2-11.4c-6.3-4.4-11.4-8.1-11.5-8.1c-0.1,0-0.4-2.5-0.7-5.6l-0.6-5.5l7.5,0.7c17,1.7,41,6.8,56.7,12
	c11.3,3.8,28.9,12.7,36.9,18.6l7.3,5.5l-3.4,0.7C426.4,135.4,406.5,135.6,400.7,134.9L400.7,134.9z M138.5,129.7
	c1.4-4.6,6.3-13.7,10.4-19.3c3.1-4.3,4.2-5.1,4.9-3.7c0.8,1.4,6.1,3.8,13.3,6c1,0.3-1.5,2.2-6.2,4.7c-4.3,2.3-11.3,6.6-15.6,9.5
	C138.8,131.5,137.8,131.9,138.5,129.7z M428.3,125.7c-3.4-2.3-9.7-6-14-8.3c-4.8-2.5-7.2-4.4-6.2-4.7c0.9-0.3,3.7-1.2,6.2-1.9
	c2.5-0.7,5.3-2.1,6.3-2.9c1.6-1.4,2.1-1.1,4.7,2.8c3.5,5.3,10.1,18.3,9.6,18.8C434.6,129.7,431.7,128,428.3,125.7L428.3,125.7z
	 M262.1,117.7c-6.3-2.7-9.8-12-6.7-17.9c1.5-2.9,2.5-3.5,5.7-3.5c4.2,0,6.2,2.3,6.2,7.2c0,3.4,2.1,5,3.5,2.8
	c1.6-2.4,0.2-8.9-2.7-11.9c-2.8-3-4.7-3-18.3-0.2c-4.4,0.9-18.3,1.4-39.4,1.5c-30.6,0.1-43.3-0.6-43.3-2.5c0-1.6,12.2-8,20.6-10.9
	c12.1-4.1,23-4.7,40.7-2.3c8,1.1,16.9,2.7,19.7,3.7c2.8,1,9.4,1.8,14.6,1.9c12.3,0.2,17.5,2.5,20.4,8.9c2.6,5.6,2.7,12.8,0.4,16.2
	C279.9,115.8,267.4,119.9,262.1,117.7L262.1,117.7z M301.8,117.1c-2.4-0.9-5.8-3-7.6-4.7c-2.7-2.6-3.2-4-3.2-8.8
	c0-7,2.8-12.8,7.4-15.5c2-1.1,7.8-2.5,13.5-3.1c13.7-1.5,23.5-3,38.7-5.9c11.3-2.1,14-2.3,22.5-1.2c5.3,0.7,12.4,2.3,15.8,3.6
	c7.3,2.8,18.2,9.1,18.8,11c0.8,2.4-9.9,3.2-43.6,3c-21.9-0.1-35.1-0.6-38.8-1.5c-15.7-3.8-19.6-2.4-20.6,7.7
	c-0.5,5.4-0.4,5.9,1.6,5.5c1.5-0.3,2.2-1.6,2.5-4.3c0.5-5,2-6.7,5.8-6.7c9,0,9.1,16.1,0.1,20.8C310.6,119.1,307.5,119.1,301.8,117.1
	L301.8,117.1z M162.7,108.2c-2.1-0.8-4-1.9-4.1-2.4c-0.2-0.6,3-2.6,6.9-4.5c6.7-3.2,7.7-3.4,14.8-2.6c4.2,0.5,11.9,0.9,17.2,1
	l9.6,0.1l-9.1,2.7c-5,1.5-11.9,3.7-15.2,5C176,110,168.5,110.3,162.7,108.2L162.7,108.2z M391.7,107.3c-3.1-1.2-9.7-3.4-14.6-4.9
	l-9-2.7l10.1-0.2c5.6-0.1,13.4-0.5,17.4-0.9c6.5-0.6,7.9-0.4,14.3,2.7c3.9,1.9,6.9,3.9,6.8,4.5c-0.5,1.8-7.6,3.8-13.6,3.8
	C399.9,109.5,394.8,108.5,391.7,107.3z M159.1,99.3c2.5-2.7,4.5-3.8,5.9-3.4c1.2,0.3,2.2,0.7,2.2,1c0,0.2-2.7,1.7-5.9,3.4l-5.9,3
	C155.3,103.2,159.1,99.3,159.1,99.3z M412.8,99.6c-5.4-2.4-5.7-2.9-2.6-3.7c1.4-0.4,3.2,0.6,5.3,2.7
	C419.1,102.4,419,102.5,412.8,99.6z"/>
</svg>
